<svg width="82" height="59" viewBox="0 0 82 59" fill="none" xmlns="http://www.w3.org/2000/svg">
<path d="M1.29305 0H80.4396C81.1536 0 81.7324 0.574428 81.7324 1.28302V57.3704C81.7324 58.079 81.1536 58.6534 80.4396 58.6534H1.29305C0.579056 58.6534 0.000259399 58.079 0.000259399 57.3704V1.28302C0.000259399 0.574428 0.579056 0 1.29305 0Z" fill="#4A4A4A"/>
<path fill-rule="evenodd" clip-rule="evenodd" d="M9.4082 48.1245V19.5664H17.5152V48.1245H9.4082Z" fill="white"/>
<path d="M17.9609 12.6286C17.9609 13.8127 17.473 14.9482 16.6046 15.7855C15.7361 16.6228 14.5583 17.0931 13.3301 17.0931C12.1019 17.0931 10.924 16.6228 10.0556 15.7855C9.18711 14.9482 8.69922 13.8127 8.69922 12.6286C8.69922 11.4445 9.18711 10.309 10.0556 9.47169C10.924 8.63443 12.1019 8.16406 13.3301 8.16406C14.5583 8.16406 15.7361 8.63443 16.6046 9.47169C17.473 10.309 17.9609 11.4445 17.9609 12.6286Z" fill="white"/>
<path fill-rule="evenodd" clip-rule="evenodd" d="M27.048 36.4544V25.5793H20.2773V19.5671H27.048V11.0793L35.2442 8.25V19.5671H41.5694L43.9748 25.5793H35.2442V35.4818C35.2442 40.6099 36.7586 42.8203 40.9458 42.8203C43.173 42.8203 44.5093 42.555 46.4693 42.0245L48.6965 47.6831C46.5583 48.4788 43.6184 49.2746 39.7876 49.2746C31.7692 49.2746 27.048 46.18 27.048 36.4544Z" fill="white"/>
<path fill-rule="evenodd" clip-rule="evenodd" d="M62.7731 48.3013H56.1806L44.7773 19.5664H53.3298L59.958 38.832L67.5839 19.5664H75.3346L62.7731 48.3013Z" fill="white"/>
</svg>
