<svg width="30" height="30" viewBox="0 0 30 30" fill="none" xmlns="http://www.w3.org/2000/svg">
<path d="M9.13707 2.72754C8.48773 2.72754 7.96435 3.24919 7.96435 3.89637V7.40286C7.96435 8.05005 8.48773 8.57169 9.13707 8.57169C9.78641 8.57169 10.3098 8.05005 10.3098 7.40286V3.89637C10.3098 3.24919 9.78641 2.72754 9.13707 2.72754ZM20.8643 2.72754C20.215 2.72754 19.6916 3.24919 19.6916 3.89637V7.40286C19.6916 8.05005 20.215 8.57169 20.8643 8.57169C21.5137 8.57169 22.0371 8.05005 22.0371 7.40286V3.89637C22.0371 3.24919 21.5137 2.72754 20.8643 2.72754ZM5.03253 5.64962C4.05793 5.64962 3.27344 5.64962 3.27344 5.64962V11.4938H26.728V5.64962H23.2098V7.40286C23.2098 8.67785 22.1436 9.74053 20.8643 9.74053C19.5851 9.74053 18.5189 8.67785 18.5189 7.40286V5.64962H11.4825V7.40286C11.4825 8.67785 10.4163 9.74053 9.13707 9.74053C7.85783 9.74053 6.79162 8.67785 6.79162 7.40286V5.64962H5.03253ZM3.27344 12.6626V25.5197C3.27344 26.4911 3.27344 27.273 3.27344 27.273H26.728C26.728 27.273 26.728 26.4911 26.728 25.5197V12.6626H3.27344ZM7.0848 15.0003H10.603V18.5068H7.0848V15.0003ZM13.2416 15.0003H16.7598V18.5068H13.2416V15.0003ZM19.3984 15.0003H22.9166V18.5068H19.3984V15.0003ZM7.0848 21.4288H10.603V24.9353H7.0848V21.4288ZM13.2416 21.4288H16.7598V24.9353H13.2416V21.4288ZM19.3984 21.4288H22.9166V24.9353H19.3984V21.4288Z" fill="#2C2C2C"/>
</svg>
