<svg width="18" height="18" viewBox="0 0 18 18" fill="none" xmlns="http://www.w3.org/2000/svg">
<path fill-rule="evenodd" clip-rule="evenodd" d="M4.5 4.875V3.75C4.5 3.55109 4.57902 3.36032 4.71967 3.21967C4.86032 3.07902 5.05109 3 5.25 3H15.75C15.9489 3 16.1397 3.07902 16.2803 3.21967C16.421 3.36032 16.5 3.55109 16.5 3.75V11.25C16.5 11.4489 16.421 11.6397 16.2803 11.7803C16.1397 11.921 15.9489 12 15.75 12H14.625V6C14.625 5.70163 14.5065 5.41548 14.2955 5.2045C14.0845 4.99353 13.7984 4.875 13.5 4.875H4.5ZM2.25 6H12.75C12.9489 6 13.1397 6.07902 13.2803 6.21967C13.421 6.36032 13.5 6.55109 13.5 6.75V14.25C13.5 14.4489 13.421 14.6397 13.2803 14.7803C13.1397 14.921 12.9489 15 12.75 15H2.25C2.05109 15 1.86032 14.921 1.71967 14.7803C1.57902 14.6397 1.5 14.4489 1.5 14.25V6.75C1.5 6.55109 1.57902 6.36032 1.71967 6.21967C1.86032 6.07902 2.05109 6 2.25 6Z" fill="#2C2C2C"/>
</svg>
