<svg width="13" height="18" viewBox="0 0 13 18" fill="none" xmlns="http://www.w3.org/2000/svg">
<path d="M5.73828 7.59375V1.125H0.535156C0.423268 1.125 0.315962 1.16945 0.236846 1.24856C0.157729 1.32768 0.113281 1.43499 0.113281 1.54688V16.4531C0.113281 16.565 0.157729 16.6723 0.236846 16.7514C0.315962 16.8306 0.423268 16.875 0.535156 16.875H12.0664C12.1783 16.875 12.2856 16.8306 12.3647 16.7514C12.4438 16.6723 12.4883 16.565 12.4883 16.4531V7.875H6.01953C5.94494 7.875 5.8734 7.84537 5.82066 7.79262C5.76791 7.73988 5.73828 7.66834 5.73828 7.59375Z" fill="#C8CBD3"/>
<path d="M6.86328 1.4649V6.60861C6.86328 6.64591 6.8781 6.68167 6.90447 6.70805C6.93084 6.73442 6.96661 6.74924 7.00391 6.74924H12.1476C12.1615 6.74925 12.1751 6.74514 12.1867 6.73744C12.1982 6.72973 12.2072 6.71878 12.2126 6.70595C12.2179 6.69313 12.2193 6.67901 12.2167 6.66537C12.214 6.65174 12.2073 6.63921 12.1975 6.62935L6.98316 1.41498C6.97331 1.40518 6.96078 1.39853 6.94714 1.39585C6.93351 1.39317 6.91939 1.39459 6.90656 1.39993C6.89374 1.40528 6.88278 1.4143 6.87508 1.42586C6.86738 1.43742 6.86327 1.45101 6.86328 1.4649Z" fill="#C8CBD3"/>
</svg>
