<svg width="70" height="70" viewBox="0 0 70 70" fill="none" xmlns="http://www.w3.org/2000/svg">
<path fill-rule="evenodd" clip-rule="evenodd" d="M15.2946 20.4509C16.4701 22.257 16.8608 24.1846 16.203 25.8354C15.5453 27.4862 13.9596 28.5562 11.9017 28.9715C10.9835 29.147 10.2835 29.9268 10.1761 30.889C10.1044 31.5979 10.0523 32.3068 10.0263 33.0157C10.0165 33.2385 10.0979 33.4545 10.2509 33.6098C10.3975 33.7752 10.6058 33.8664 10.8175 33.863H21.2302C21.66 33.863 22.0214 33.5288 22.0638 33.0832C22.3405 28.4753 24.8705 24.3331 28.7745 22.1087C32.6753 19.8807 37.4059 19.8807 41.3102 22.1087C45.211 24.3333 47.7443 28.4754 48.021 33.0832C48.0633 33.5288 48.4247 33.863 48.8545 33.863H59.1731C59.388 33.8664 59.7396 33.863 59.7396 33.863H59.9643C59.9643 33.863 59.9154 31.5979 59.8145 30.889C59.7136 29.9235 59.0103 29.1403 58.0888 28.9613C56.0309 28.5461 54.4453 27.476 53.7875 25.8252C53.1298 24.1744 53.5205 22.2469 54.6959 20.4408C55.2136 19.6475 55.1778 18.5977 54.6047 17.8482C53.4065 16.2751 52.0357 14.8505 50.5217 13.6048C49.7891 12.9904 48.7536 12.9465 47.9787 13.5002C46.2367 14.729 44.3775 15.134 42.7853 14.4522C41.193 13.7703 39.7604 8.16986 39.7604 8.16986C39.7604 8.16986 38.8291 8.27789 37.8914 8.16986C35.9703 7.94368 32.1087 8.16986 32.1087 8.16986H30.2397C30.2397 8.16986 28.807 13.7669 27.2148 14.4522C25.6225 15.1341 23.7634 14.729 22.0214 13.5002C21.2464 12.9465 20.211 12.9904 19.4784 13.6048C17.9611 14.8539 16.5869 16.2819 15.3855 17.8583C14.8124 18.6078 14.7769 19.6576 15.2946 20.4509ZM8.61006 30.7164C8.5254 31.4591 8.46679 32.2187 8.45051 32.9715C8.43097 33.6365 8.67192 34.2813 9.12126 34.7607C9.57059 35.2366 10.186 35.5067 10.8275 35.5033H21.2302C22.487 35.5067 23.5289 34.4906 23.6039 33.1875C23.9327 26.912 28.9372 21.997 35.0001 21.997C41.0631 21.997 46.0672 26.9121 46.3964 33.1875C46.4713 34.4906 47.5132 35.5067 48.7701 35.5033H59.1729C59.8143 35.5033 60.4264 35.2333 60.8725 34.7573C61.3186 34.2813 61.5596 33.6365 61.54 32.9715C61.54 32.2187 61.4651 31.4591 61.3805 30.7164C61.2112 29.0353 59.9934 27.6715 58.3882 27.3643C57.1541 27.1145 55.7639 26.5001 55.2461 25.2038C54.7284 23.9075 55.3047 22.4458 56.0048 21.3655C56.4574 20.6971 56.6918 19.8971 56.6723 19.0835H66.9483C67.2283 19.0801 67.6939 19.0835 67.6939 19.0835H68V62.0002H67.7037C67.7037 62.0002 67.2348 62.0002 66.9483 62.0002H3.05169C2.46886 62.0002 2 62.0002 2 62.0002V19.0836C2 19.0836 2.18654 19.0836 2.30607 19.0836C2.59726 19.0836 2.77168 19.0802 3.05171 19.0836H13.3277C13.3017 19.9039 13.5328 20.7107 13.9854 21.3825C14.6855 22.4628 15.2618 23.9312 14.7441 25.2208C14.2264 26.507 12.836 27.1315 11.602 27.3813C10.0033 27.6851 8.78911 29.0421 8.61006 30.7164ZM40.7117 40.1518C40.7085 40.3679 40.7899 40.5738 40.9364 40.7223L46.6052 47.6359C46.7582 47.8182 46.9797 47.9263 47.2108 47.9296H58.047C58.4377 49.2023 59.6652 49.9889 60.9351 49.7829C62.2049 49.577 63.1426 48.4427 63.1426 47.1092C63.1426 45.7758 62.2049 44.6415 60.9351 44.4356C59.6652 44.233 58.4377 45.0196 58.047 46.2889H47.5693L42.2945 39.8411V30.8889C42.2945 30.4365 41.9396 30.0685 41.5033 30.0685C41.0637 30.0685 40.712 30.4365 40.712 30.8889L40.7117 40.1518ZM32.3762 53.6956C32.3762 54.7151 32.933 55.6502 33.8122 56.1093C34.6913 56.5718 35.7463 56.4806 36.5407 55.8764C37.3352 55.2721 37.7357 54.256 37.5762 53.25C37.4166 52.2406 36.7231 51.4102 35.7854 51.103V25.876C35.7854 25.4237 35.4305 25.0557 34.9909 25.0557C34.5546 25.0557 34.1997 25.4237 34.1997 25.876V51.1099C33.1186 51.4744 32.386 52.5176 32.3828 53.6957L32.3762 53.6956ZM6.8521 47.1263C6.81954 48.4766 7.754 49.6446 9.04017 49.8641C10.3263 50.0801 11.5702 49.2834 11.9543 47.9905H22.7905C23.0217 47.9871 23.2431 47.8791 23.3961 47.6968L29.0649 40.7832C29.2114 40.6313 29.2929 40.4287 29.2896 40.2127V30.8888C29.3742 30.6255 29.3319 30.3351 29.1756 30.1123C29.0161 29.8862 28.7654 29.7545 28.4984 29.7545C28.2314 29.7545 27.9807 29.8862 27.8244 30.1123C27.6681 30.3351 27.6225 30.6255 27.7072 30.8888V39.8583L22.4324 46.306H11.9613C11.5804 45.0232 10.3496 44.2266 9.0699 44.4325C7.79023 44.6383 6.84924 45.7861 6.85907 47.1264L6.8521 47.1263Z" fill="#2C2C2C"/>
</svg>
