<svg width="70" height="70" viewBox="0 0 70 70" fill="none" xmlns="http://www.w3.org/2000/svg">
<path fill-rule="evenodd" clip-rule="evenodd" d="M28.0031 5.33789L27.5474 9.74937H38.5031L38.0474 5.33789H28.0031ZM8.3883 64.6613H22.3276V51.0378H8.3883V64.6613ZM32.9731 38.2379V64.6613H69.9969V38.2379H32.9731ZM54.8419 46.2132H62.3067V56.6829H54.8419V46.2132ZM40.6599 46.2132H48.1247V56.6829H40.6599V46.2132ZM41.2158 35.9808L38.7336 12.0066H27.3096L25.3713 30.7277L32.2224 35.9807L41.2158 35.9808ZM51.5852 5.33789L51.1294 9.74937H62.0852L61.6295 5.33789H51.5852ZM64.8012 35.9808L62.319 12.0066H50.895L48.4128 35.9808H64.8012ZM30.7158 64.6613H24.5848V48.7775C24.5848 48.7775 24.0804 48.7775 23.4546 48.7775H7.26126C6.63843 48.7775 6.13107 48.7775 6.13107 48.7775V64.6613H0V37.6639L15.358 25.8907L30.716 37.6639L30.7158 64.6613Z" fill="#2C2C2C"/>
</svg>
