<svg width="214" height="120" viewBox="0 0 214 120" fill="none" xmlns="http://www.w3.org/2000/svg">
<rect x="0.5" y="0.5" width="212.2" height="119" fill="white"/>
<rect x="0.5" y="0.5" width="212.2" height="119" stroke="#D9D9D9"/>
<path d="M123.386 91.2187C141.309 85.3231 148.119 66.567 138.596 49.3269C129.074 32.0864 106.825 22.888 88.9033 28.7835C70.9807 34.6787 64.1717 53.435 73.6941 70.6757C83.2167 87.9156 105.465 97.1128 123.386 91.2187Z" fill="white"/>
<path d="M123.386 91.2187C141.309 85.3231 148.119 66.567 138.596 49.3269C129.074 32.0864 106.825 22.888 88.9033 28.7835C70.9807 34.6787 64.1717 53.435 73.6941 70.6757C83.2167 87.9156 105.465 97.1128 123.386 91.2187Z" fill="white"/>
<path d="M110.064 65.946C109.49 67.8983 108.123 69.7292 106.217 71.101C104.31 72.472 102.083 73.2274 99.9435 73.2274H92.0146H91.558H91.3163L91.3865 72.9891L91.505 72.5867L93.2192 66.7505L93.2889 66.5131L93.3274 66.382H93.4604H93.7289H96.9352H98.8608C98.8608 66.382 98.9684 66.3874 98.9597 66.3874C100.228 66.3874 101.26 65.4554 101.26 64.3107C101.26 63.862 101.104 63.4344 100.808 63.0746C100.81 63.0764 100.648 62.8844 100.645 62.8804L96.5192 57.6905C96.5192 57.6905 96.3827 57.5197 96.3827 57.5188L96.3886 57.5157C95.3531 56.105 95.0896 54.287 95.6531 52.3678C96.2267 50.4158 97.5925 48.5851 99.4999 47.2136C101.406 45.8421 103.634 45.0867 105.773 45.0867H113.689H114.145H114.386L114.317 45.325L114.198 45.7278L112.484 51.5639L112.415 51.8011L112.376 51.9322H112.243H111.974H106.766V51.937C105.497 51.937 104.465 52.8687 104.465 54.0134C104.465 54.4628 104.621 54.8899 104.919 55.2502C104.919 55.2502 105.292 55.7105 105.293 55.712L109.197 60.623C109.197 60.623 109.321 60.778 109.32 60.7786L109.316 60.7821C110.361 62.1955 110.629 64.0199 110.064 65.946ZM136.596 49.9841C135.805 48.5536 134.921 47.1832 133.954 45.8748L132.283 51.564L132.214 51.8012L132.174 51.9323H132.042H131.773H126.565V51.9371C125.296 51.9371 124.264 52.8687 124.264 54.0135C124.264 54.4629 124.421 54.8899 124.717 55.2502C124.717 55.2502 125.091 55.7105 125.092 55.712C125.092 55.712 128.996 60.6234 128.997 60.625L129.125 60.7875L129.12 60.7896C130.161 62.2015 130.427 64.0231 129.862 65.9462C129.288 67.8984 127.923 69.7294 126.015 71.1011C124.109 72.4721 121.881 73.2276 119.742 73.2276H111.814H111.356H111.116L111.185 72.9893L111.304 72.5868L113.018 66.7506L113.087 66.5132L113.126 66.3821H113.259H113.528H116.734H118.66C118.66 66.3821 118.767 66.3875 118.759 66.3875C120.027 66.3875 121.058 65.4555 121.058 64.3108C121.058 63.8621 120.902 63.4345 120.607 63.0747C120.608 63.0765 120.447 62.8845 120.444 62.8806L116.319 57.6906L116.187 57.5261L116.192 57.5221C115.153 56.1106 114.888 54.2901 115.452 52.368C116.026 50.416 117.392 48.5853 119.298 47.2138C121.204 45.8423 123.433 45.0869 125.572 45.0869H133.357C125.161 34.5662 111.574 28.3913 98.7084 29.0886L96.6987 35.9304L96.6288 36.1674L96.5904 36.2992H96.4576H96.1881H89.3514H88.1861H87.9443L88.014 36.0601L88.1323 35.6579L89.5447 30.8507C73.0424 36.5363 66.8315 53.9747 75.6917 70.0176C76.158 70.8611 76.6582 71.684 77.1875 72.4855L85.1322 45.439L85.2019 45.2021L85.2404 45.071H85.3732H86.3513H93.188H93.6453H93.8865L93.816 45.3095L93.6978 45.7118L85.713 72.895L85.6434 73.1319L85.6049 73.2627H85.472H85.2027H78.3659H77.7146C87.4994 87.3208 106.669 94.4441 122.323 89.2949C139.142 83.7631 145.531 66.1626 136.596 49.9841Z" fill="#212121"/>
</svg>
