<svg width="102" height="33" viewBox="0 0 102 33" fill="none" xmlns="http://www.w3.org/2000/svg">
<path d="M88.2162 22.1108C88.2593 21.7011 88.2845 21.2873 88.2845 20.8684C88.2845 14.5256 83.237 9.38672 77.0097 9.38672C70.7841 9.38672 65.7373 14.5256 65.7373 20.8684C65.7373 27.2092 70.7842 32.3461 77.0097 32.3461C81.7456 32.3461 85.7939 29.3785 87.4673 25.1623L82.6078 24.2756C81.5313 26.3271 79.4944 27.7089 77.1661 27.7089C74.0756 27.7089 71.5163 25.2883 71.0014 22.1107L88.2162 22.1108ZM77.1663 14.1519C79.8053 14.1519 82.0593 15.9216 82.9793 18.4268H71.3462C72.2637 15.9218 74.5227 14.1519 77.1663 14.1519Z" fill="#2C2C2C"/>
<path d="M62.7077 9.8667H56.9502V31.9329H62.7077V9.8667Z" fill="#2C2C2C"/>
<path d="M59.8304 0.870605C58.0531 0.870605 56.6182 2.37301 56.6182 4.21611C56.6182 6.05638 58.0531 7.55478 59.8304 7.55478C61.6006 7.55478 63.0386 6.05638 63.0386 4.21611C63.0386 2.37301 61.6006 0.870605 59.8304 0.870605Z" fill="#2C2C2C"/>
<path d="M21.7107 2.79297V14.6718H9.30038V2.79297H3.00684V31.9143H9.30038V20.035H21.7107V31.9143H28.0095V2.79297H21.7107Z" fill="#2C2C2C"/>
<path d="M47.6971 9.87779V11.0618C46.0237 10.0059 44.0626 9.39941 41.9614 9.39941C35.8577 9.39941 30.9072 14.535 30.9072 20.8728C30.9072 27.2094 35.8577 32.3463 41.9614 32.3463C44.008 32.3463 45.9202 31.7674 47.5642 30.7646V31.9142H53.1821V9.87779H47.6971ZM42.2421 27.5088C38.6799 27.5088 35.8003 24.5405 35.8003 20.8754C35.8003 17.2073 38.6798 14.2368 42.2421 14.2368C45.8034 14.2368 48.6878 17.2073 48.6878 20.8754C48.6877 24.5405 45.8033 27.5088 42.2421 27.5088Z" fill="#2C2C2C"/>
<path d="M100.19 7.81787C94.8878 8.78106 90.8568 13.5846 90.7949 19.3781V31.9333H96.3078L96.3106 19.142C96.3106 16.2138 98.4215 13.7972 101.142 13.4504L100.19 7.81787Z" fill="#2C2C2C"/>
</svg>
