<svg width="214" height="120" viewBox="0 0 214 120" fill="none" xmlns="http://www.w3.org/2000/svg">
<path d="M212.7 0.5V119.5H0.5V0.5H212.7Z" fill="white"/>
<path d="M212.7 0.5V119.5H0.5V0.5H212.7Z" stroke="#D9D9D9"/>
<path d="M91.6406 62.3802L98.1694 41.7707H90.528L86.6729 53.9804L86.6248 53.5243L86.6027 53.0668L86.5351 52.6371L86.4845 52.181L86.3882 51.7473L86.2934 51.3135L86.1764 50.8838L86.0581 50.4541L85.9139 50.019L85.7774 49.6117L85.5863 49.1819L85.4212 48.7759L85.2055 48.3884L84.9936 47.981L84.7545 47.5697L84.5205 47.1874L84.0214 46.4914L83.4833 45.8428L82.9114 45.2483L82.2745 44.6669L81.6363 44.1383L80.95 43.6585L80.2169 43.2287L79.4566 42.828L78.6754 42.4628L77.8734 42.1491L77.0455 41.8815L76.198 41.6508L75.296 41.4794L74.3978 41.3146L73.4763 41.2158L72.5535 41.171L71.5812 41.1406L70.6129 41.171L69.6394 41.2382L68.6489 41.3555L67.6559 41.5019L66.6642 41.6983L65.6477 41.9342L64.6547 42.2216L63.637 42.5578L62.6206 42.9137L61.6236 43.35L60.6072 43.8048L59.6103 44.3097L58.6212 44.8621L57.6489 45.4381L56.6819 46.0841L55.7344 46.7538L54.8336 47.4511L53.9628 48.1696L53.1322 48.9183L52.3277 49.679L51.5712 50.4778L50.8394 51.2912L50.1765 52.1309L49.5357 52.9706L48.9209 53.813L48.3789 54.6975L47.8603 55.5676L47.3859 56.4508L46.9622 57.3617L46.558 58.2529L46.2239 59.1624L45.9211 60.0483L45.6572 60.9592L45.47 61.8701L45.3063 62.7599L45.1906 63.6708L45.136 64.5607L45.1152 65.4241L45.136 66.2915L45.2374 67.1523L45.3739 67.9868L45.5389 68.8318L45.7742 69.6438L46.0848 70.4124L46.4163 71.2073L46.8166 71.9534L47.265 72.6718L47.7407 73.3442L48.2555 73.9664L48.8053 74.5622L49.3954 75.1133L50.0115 75.6208L50.6496 76.1046L51.3346 76.5356L52.0443 76.939L52.7813 77.2976L53.5351 77.6113L54.3371 77.8987L55.143 78.1399L55.967 78.3298L56.8236 78.4998L57.6723 78.6448L58.5731 78.72L59.4725 78.7662H60.372L61.2922 78.7385L62.2449 78.6673L63.1873 78.5737L64.1335 78.4049L65.0784 78.2388L66.0507 77.9976L67.019 77.7287L67.9652 77.4189L68.9349 77.084L69.9058 76.6754L70.8482 76.2733L71.7944 75.7895L72.7406 75.2886L73.6895 74.7349V73.2005L72.8836 73.6315L72.0998 74.0151L71.2966 74.375L70.4907 74.7059L69.6667 74.9933L68.866 75.2609L68.0614 75.5021L67.2543 75.6959L66.4497 75.8607L65.6477 75.9859L64.8653 76.1046L64.0594 76.1507L63.2822 76.1982H62.5244L61.7419 76.1758L61.0102 76.1046L60.255 76.0044L59.5427 75.8871L58.8343 75.7407L58.148 75.5522L57.4644 75.3097L56.7989 75.0724L56.1646 74.7784L55.5485 74.4686L54.9532 74.114L54.3891 73.7502L53.8185 73.3442L53.3012 72.8854L52.8008 72.4069L52.3498 71.9033L51.9039 71.3747L51.501 70.7986L51.0981 70.1724L50.7666 69.5094L50.4612 68.8318L50.1999 68.1344L49.9894 67.416L49.823 66.691L49.7008 65.9527L49.6345 65.2092L49.5877 64.4381V63.6708L49.6345 62.9076L49.7242 62.1114L49.8698 61.3455L50.0348 60.5506L50.248 59.7583L50.4885 58.9647L50.7926 58.2028L51.0981 57.4118L51.4776 56.638L51.8805 55.8734L52.3043 55.1062L52.8008 54.3574L53.3012 53.6192L53.8445 52.9008L54.4359 52.181L55.052 51.4823L55.7097 50.785L56.3946 50.114L57.1043 49.4694L57.8608 48.8471L58.6446 48.246L59.4491 47.67L60.2745 47.1176L61.1258 46.614L61.9798 46.1316L62.8558 45.6992L63.7085 45.3169L64.5754 44.9544L65.4567 44.6498L66.3314 44.3559L67.2075 44.1173L68.0848 43.8998L68.9349 43.7574L69.8096 43.6177L70.661 43.5201L71.511 43.4713H72.3416L73.1669 43.4911L73.9715 43.5398L74.7748 43.6374L75.5585 43.7811L76.3098 43.9485L77.0689 44.17L77.7786 44.406L78.4921 44.6947L79.1758 45.0045L79.84 45.3696L80.4548 45.7479L81.0449 46.1803L81.6363 46.6615L82.1562 47.1637L82.6787 47.6884L83.1531 48.2671L83.5729 48.8946L83.9291 49.4456L84.2358 49.9967L84.501 50.549L84.7323 51.1488L84.9234 51.7236L85.0859 52.322L85.2055 52.9495L85.3225 53.5717L85.3953 54.2164L85.4213 54.8689L85.446 55.5399L85.4213 56.2122L85.3732 56.9082L85.3004 57.6003L85.2056 58.2964L85.086 59.0161L84.9235 59.7873L84.7078 60.5506L84.4725 61.298L84.2112 62.0151L83.9292 62.7151L83.5951 63.4072L83.2429 64.0808L82.8634 64.7571L82.4409 65.3991L81.9899 66.0503L81.5181 66.6725L80.9969 67.2947L80.4276 67.8919L79.8401 68.4956L79.2214 69.073L78.5585 69.6438L78.8679 69.719L79.1759 69.7691L79.4879 69.8113L79.8128 69.8627L80.1702 69.9141L80.5251 69.9603H80.8799H81.2322H81.7534L82.2486 69.9353L82.7698 69.8866L83.2663 69.7877L83.6224 69.7192L83.9994 69.644L84.3555 69.5518L84.7078 69.4305L85.0431 69.3119L85.3953 69.1642L85.7255 69.0245L86.0582 68.8531L86.3884 68.687L86.6977 68.5196L87.0032 68.3271L87.3125 68.1136L87.6205 67.9185L87.9013 67.6997L88.1885 67.465L88.4732 67.2238L88.7293 66.9825L88.9931 66.7215L89.2505 66.4552L89.4922 66.1929L89.7249 65.9042L89.9614 65.6155L90.172 65.3281L90.3618 65.0183L90.5801 64.7046L90.7426 64.3895L90.9285 64.0811L91.0961 63.7462L91.2404 63.4074L91.3795 63.0752L91.5212 62.7153L91.6406 62.3802Z" fill="#808080"/>
<path d="M102.045 41.7148L93.2031 69.96H100.842L104.294 58.8701L104.341 58.8006V58.7523L104.507 58.2232L104.652 57.893L104.838 57.557L105.025 57.2423L105.242 56.9295L105.453 56.6379L105.71 56.3772L105.996 56.1339L106.281 55.9002L106.567 55.6839L106.896 55.4889L107.226 55.3479L107.559 55.2012L107.911 55.0815L108.29 54.9868L108.673 54.9192L109.052 54.8941L109.236 54.9192L109.404 54.9617L109.568 55.0081L109.733 55.0815L109.88 55.1741L110.015 55.2726L110.162 55.3672L110.274 55.4889L110.392 55.6337L110.493 55.7534L110.583 55.9214L110.657 56.0662L110.706 56.2323L110.752 56.4003L110.777 56.5683V56.7382L110.752 57.0761L110.68 57.3871L106.66 69.96H114.354L118.888 55.6337L118.962 55.4193L119.031 55.2011L119.074 54.9617L119.101 54.7203L119.169 54.4538L119.223 54.168L119.24 53.861L119.267 53.5713L119.24 53.1156L119.169 52.658L119.074 52.2544L118.935 51.8431L118.747 51.4588L118.534 51.0996L118.277 50.7404L117.987 50.4334L117.703 50.138L117.374 49.8773L117.022 49.6571L116.643 49.4447L116.241 49.3018L115.838 49.1821L115.413 49.0836L114.962 49.0354H114.748L114.562 48.9871H114.469H114.396H114.354H114.295L113.709 49.0103L113.14 49.0585L112.599 49.13L112.028 49.2304L111.489 49.3463L110.961 49.5162L110.445 49.6784L109.928 49.8986L109.427 50.138L108.949 50.3794L108.479 50.6652L108.033 50.9568L107.582 51.2908L107.18 51.6288L106.782 52.0111L106.398 52.3935L109.69 41.7149L102.045 41.7148ZM69.0989 48.8481L68.6 48.8635L68.0841 48.8925L67.5852 48.9368L67.0883 49.0083L66.5914 49.0586L66.0963 49.159L65.647 49.2516L65.1919 49.3462L64.7483 49.4911L64.3199 49.6359L63.9182 49.7826L63.5146 49.9487L63.1147 50.1128L62.7339 50.3311L62.355 50.5261L62.0047 50.7404L61.6487 50.9818L61.2926 51.2174L60.9613 51.4588L60.6567 51.7214L60.3254 51.9898L60.036 52.2756L59.7333 52.5363L59.4496 52.8279L59.1906 53.1368L58.9012 53.4748L58.6213 53.832L58.3377 54.2163L58.054 54.6508L57.7684 55.1065L65.0073 55.9001L65.3119 55.4695L65.6184 55.0814L65.9535 54.7705L66.2601 54.5059L66.4981 54.3572L66.7342 54.1912L67.0445 54.027L67.3967 53.8784L67.7737 53.7663L68.1545 53.6679L68.5296 53.6002L68.9351 53.5462H69.3597L69.7577 53.5713L69.9976 53.6002L70.2336 53.6679L70.4678 53.7123L70.7306 53.8127L70.9914 53.9093L71.2504 54.0271L71.5112 54.1449L71.7492 54.2627L71.7702 54.506L71.7949 54.7454L71.7702 54.9868L71.7492 55.2224L71.7016 55.4695L71.6312 55.6839L71.5322 55.9002L71.4369 56.1184L70.7077 56.3752L69.9728 56.5992L69.2588 56.7865L68.5524 56.9526L68.1545 57.0472L67.6347 57.1959L66.995 57.3388L66.26 57.4836L65.883 57.5782L65.5041 57.6477L65.0777 57.7231L64.6264 57.8177L64.1561 57.893L63.684 57.9838L63.1604 58.0823L62.6425 58.1769L61.7191 58.368L60.868 58.5843L60.0683 58.8257L59.3315 59.0864L58.667 59.376L58.0539 59.6908L57.4865 60.0036L56.9858 60.3609L56.5631 60.7451L56.1652 61.1313L55.7787 61.5369L55.4283 61.9694L55.2856 62.2089L55.1199 62.4522L55.0038 62.6897L54.8591 62.9542L54.7391 63.2362L54.623 63.5104L54.5259 63.8213L54.4364 64.1341L54.3583 64.4373L54.3183 64.7289L54.2708 65.0166L54.2441 65.3062V65.5669L54.2708 65.8295L54.2917 66.0941L54.3374 66.3567L54.4079 66.5981L54.4802 66.8375L54.5507 67.0828L54.6497 67.3164L54.7678 67.5404L54.8782 67.747L55.021 67.9421L55.1657 68.1622L55.3314 68.3553L55.5008 68.5426L55.6836 68.7357L55.8988 68.9037L56.1139 69.0737L56.3252 69.2146L56.5861 69.3652L56.8431 69.4772L57.1325 69.597L57.4391 69.6896L57.7932 69.7688L58.1473 69.8422L58.551 69.8847L59.0003 69.9349L59.4725 69.958H59.9675H60.6301L61.2679 69.9349L61.9286 69.8615L62.5683 69.7418L63.1871 69.6182L63.8002 69.456L64.3866 69.2591L64.9388 69.0447L65.2682 68.9289L65.5709 68.7782L65.906 68.6122L66.2601 68.421L66.7818 68.1352L67.2997 67.8185L67.8176 67.4651L68.3431 67.0326L68.2707 67.2662L68.225 67.4864L68.1983 67.6988V67.9421V68.3264L68.2706 68.7126L68.3202 68.8806L68.3868 69.0447L68.4573 69.2147L68.5526 69.3846V69.431H69.9291H73.6876H75.245H75.9304L75.8619 69.2591L75.8162 69.0737L75.7743 68.8516L75.7457 68.6392L75.7248 68.3998L75.7457 68.1623L75.7743 67.919L75.8428 67.6776L76.5016 65.5419L77.0918 63.6514L77.6402 61.9463L78.1104 60.4555L78.5369 59.1366L78.893 57.9838L79.2204 56.9797L79.487 56.1184L79.5575 55.8713L79.5975 55.6569L79.647 55.4194L79.6717 55.1742L79.6945 54.7706V54.506L79.6717 54.0059L79.5975 53.498L79.5061 53.0172L79.3405 52.5673L79.1539 52.1289L78.9102 51.6983L78.6531 51.314L78.3485 50.9568L78.0191 50.5976L77.6631 50.306L77.2823 50.0183L76.8824 49.7827L76.454 49.5877L76.0047 49.4216L75.5344 49.3019L75.0356 49.2073L74.5596 49.1301L74.0189 49.0586L73.4286 48.9891L72.8099 48.937L72.1758 48.8926L71.5114 48.8636L70.824 48.8482H70.1157H69.6188L69.0989 48.8481ZM159.288 48.8481L158.793 48.8635L158.269 48.8925L157.774 48.9368L157.275 48.9889L156.779 49.0585L156.285 49.1589L155.813 49.2515L155.387 49.3732L154.935 49.491L154.513 49.6358L154.113 49.7825L153.679 49.9486L153.304 50.1127L152.927 50.3058L152.548 50.526L152.194 50.7403L151.838 50.9566L151.48 51.1941L151.156 51.4374L150.84 51.6981L150.516 51.9607L150.21 52.2543L149.922 52.5188L149.637 52.8027L149.353 53.1367L149.071 53.4747L148.789 53.8319L148.529 54.2162L148.245 54.6507L147.956 55.1064L155.175 55.9L155.507 55.4694L155.813 55.0813L156.116 54.7704L156.451 54.5058L156.659 54.3571L156.902 54.1911L157.232 54.0269L157.582 53.8783L157.938 53.7663L158.317 53.6678L158.721 53.6002L159.122 53.5461H159.524L159.949 53.5712L160.4 53.6678L160.918 53.8126L161.184 53.9092L161.439 54.0058L161.7 54.1197L161.936 54.2433L161.965 54.4828V54.7183V54.9868L161.936 55.2223L161.889 55.4695L161.816 55.6839L161.723 55.9001L161.63 56.1183L160.874 56.3752L160.164 56.5992L159.454 56.7865L158.745 56.9525L158.317 57.0472L157.799 57.1958L157.184 57.3387L156.451 57.4836L156.072 57.5782L155.672 57.6477L155.244 57.723L154.817 57.8177L154.341 57.893L153.845 57.9838L153.351 58.0822L152.832 58.1768L151.906 58.368L151.034 58.5843L150.252 58.8257L149.521 59.0864L148.835 59.376L148.215 59.6908L147.678 60.0036L147.179 60.3608L146.728 60.7451L146.326 61.1313L145.972 61.5368L145.614 61.9694L145.45 62.2088L145.311 62.4521L145.164 62.6897L145.05 62.9542L144.93 63.2361L144.808 63.5103L144.696 63.8212L144.595 64.1341L144.549 64.4372L144.481 64.7288L144.456 65.0166L144.429 65.3062V65.5669L144.456 65.8295L144.481 66.0941L144.528 66.3567L144.572 66.5981L144.646 66.8375L144.744 67.0827L144.839 67.3164L144.955 67.5404L145.073 67.747L145.191 67.9421L145.332 68.1622L145.522 68.3553L145.684 68.5426L145.878 68.7357L146.065 68.9037L146.282 69.0736L146.518 69.2146L146.748 69.3652L147.04 69.4772L147.318 69.5969L147.622 69.6896L147.955 69.7688L148.336 69.8421L148.738 69.8847L149.187 69.9349L149.637 69.958H150.158H150.794L151.457 69.9349L152.097 69.8615L152.734 69.7418L153.376 69.6182L153.964 69.456L154.558 69.259L155.124 69.0447L155.457 68.9288L155.764 68.7782L156.097 68.6121L156.451 68.421L156.944 68.1352L157.492 67.8185L158.008 67.4651L158.532 67.0326L158.462 67.2662L158.412 67.4863L158.389 67.6988L158.363 67.9421L158.389 68.3263L158.462 68.7126L158.507 68.8806L158.582 69.0447L158.65 69.2146L158.745 69.3846V69.4309H160.091H163.875H165.438H166.125L166.057 69.2591L165.984 69.0447L165.956 68.8323L165.908 68.5967V68.3553L165.935 68.112L165.956 67.8919L166.011 67.6776L166.692 65.5418L167.283 63.6514L167.808 61.9463L168.28 60.4555L168.678 59.1366L169.034 57.9838L169.341 56.9797L169.625 56.1184L169.745 55.6569L169.836 55.1741L169.859 54.7706L169.883 54.506L169.859 54.0059L169.792 53.498L169.67 53.0172L169.529 52.5673L169.341 52.1289L169.105 51.6983L168.846 51.314L168.537 50.9568L168.202 50.5976L167.852 50.306L167.473 50.0183L167.067 49.7827L166.622 49.5877L166.173 49.4216L165.723 49.3019L165.224 49.2073L164.727 49.13L164.185 49.0586L163.619 48.9891L163.002 48.937L162.361 48.8926L161.7 48.8636L161.015 48.8482H160.301H159.809L159.288 48.8481ZM124.445 48.9871L119.882 63.3404L119.803 63.5779L119.763 63.8213L119.718 64.0356L119.691 64.2731L119.621 64.5589L119.575 64.8466L119.529 65.1112V65.3989L119.554 65.8566L119.621 66.291L119.718 66.7217L119.861 67.1291L120.024 67.5076L120.238 67.8919L120.496 68.2337L120.754 68.5426L121.062 68.8323L121.395 69.0949L121.747 69.3363L122.13 69.5255L122.532 69.6742L122.934 69.7862L123.36 69.8847L123.804 69.9136L123.998 69.96H124.232H124.283H124.327H124.398H124.42H124.499H125.064L125.628 69.9136L126.172 69.8422L126.715 69.7186L127.261 69.5969L127.783 69.456L128.303 69.259L128.821 69.0736L129.319 68.8322L129.794 68.5947L130.266 68.3051L130.738 68.0154L131.162 67.6987L131.593 67.3704L132.017 67.0055L132.394 66.6231L131.517 69.4289H139.089L145.636 48.9871H137.952L134.428 60.0982L134.384 60.2411L134.239 60.7239L134.095 61.0772L133.935 61.419L133.746 61.7299L133.527 62.0389L133.295 62.3305L133.03 62.5912L132.775 62.8596L132.49 63.0739L132.183 63.2902L131.848 63.4833L131.517 63.6223L131.162 63.7729L130.81 63.8869L130.452 63.9853L130.075 64.0356L129.679 64.08L129.508 64.051L129.344 64.0046L129.177 63.9564L129.011 63.8869L128.87 63.8212L128.729 63.7189L128.609 63.6223L128.487 63.5103L128.371 63.3597L128.28 63.2361L128.209 63.0739L128.139 62.929L128.07 62.761L128.044 62.566L128.017 62.398L127.996 62.2088L128.044 61.8959L128.114 61.5812L132.084 48.987L124.445 48.9871ZM70.3288 59.9264L69.9728 61.1545L69.8548 61.4866L69.7139 61.8033L69.5711 62.1123L69.4321 62.3981L69.2588 62.6897L69.0989 62.9542L68.9085 63.213L68.7181 63.4351L68.5296 63.6513L68.343 63.8657L68.1031 64.051L67.867 64.2712L67.6347 64.4662L67.351 64.6323L67.0445 64.7984L66.7342 64.9683L66.4981 65.0861L66.2601 65.1827L66.0011 65.2812L65.7365 65.3526L65.4794 65.4221L65.2205 65.4724L64.6741 65.567L64.1562 65.6152H63.8706L63.585 65.5901L63.3489 65.5419L63.1395 65.4975L62.951 65.4221L62.7815 65.3275L62.6425 65.1827L62.4769 65.0166L62.3817 64.8699L62.2865 64.7038L62.216 64.5339L62.1684 64.3427L62.1437 64.1341V63.9391L62.1932 63.719L62.2655 63.4815L62.3341 63.2922L62.4483 63.0991L62.5683 62.9292L62.6901 62.7341L62.8558 62.5661L63.0176 62.3982L63.1871 62.2572L63.3717 62.1124L63.585 61.9926L63.8496 61.8497L64.1562 61.73L64.4837 61.5813L65.2909 61.3187L66.2601 61.031L66.498 60.9595L66.7817 60.89L67.2311 60.7934L67.6823 60.6775L68.124 60.5501L68.5791 60.4555L69.0265 60.3377L69.4511 60.1909L69.9062 60.0712L70.3288 59.9264ZM160.518 59.9264L160.164 61.1545L159.998 61.6122L159.81 62.0621L159.568 62.4946L159.315 62.906L159.023 63.2922L158.721 63.6513L158.363 63.9854L158.008 64.2963L157.605 64.5589L157.207 64.8235L156.779 65.0397L156.312 65.2348L155.859 65.3757L155.358 65.4974L154.863 65.59L154.341 65.6421H154.035H153.776L153.542 65.59L153.329 65.5185L153.14 65.4471L152.972 65.3273L152.809 65.1825L152.666 65.0165L152.573 64.8697L152.474 64.7036L152.409 64.5337L152.359 64.3425L152.338 64.134V63.9389L152.382 63.7188L152.455 63.4813L152.523 63.292L152.618 63.0989L152.734 62.929L152.877 62.734L153.022 62.566L153.187 62.398L153.376 62.257L153.564 62.1122L153.776 61.9925L154.035 61.8496L154.32 61.7298L154.673 61.5812L155.457 61.3185L156.451 61.0308L156.687 60.9593L156.967 60.8898L157.418 60.7932L157.867 60.6774L158.317 60.5499L158.766 60.4553L159.193 60.3375L159.642 60.1908L160.091 60.071L160.518 59.9264Z" fill="#2C2C2C"/>
<path d="M122.178 76.8685V75.9879H124.355V77.8532V78.076V78.8103H123.549V78.5018L123.242 78.6455L122.912 78.7668L122.742 78.8103L122.556 78.8419L122.391 78.859H122.225L121.822 78.8419L121.469 78.7866L121.304 78.7391L121.138 78.6679L120.995 78.5994L120.853 78.5255L120.709 78.4319L120.57 78.3304L120.45 78.2407L120.331 78.1168L120.241 77.9705L120.142 77.8532L120.051 77.7082L119.98 77.5434L119.834 77.2296L119.738 76.8684L119.693 76.5363L119.672 76.1513L119.693 75.7677L119.764 75.3881L119.862 75.0427L120.006 74.7065L120.093 74.5628L120.192 74.4231L120.286 74.2834L120.403 74.1621L120.523 74.0369L120.667 73.9182L120.806 73.822L120.971 73.7508L121.207 73.6335L121.491 73.532L121.822 73.4845H122.152H122.391L122.604 73.5149L122.791 73.532L122.985 73.5821L123.171 73.6335L123.334 73.6968L123.479 73.801L123.622 73.8932L123.737 73.9908L123.856 74.116L123.951 74.2267L124.045 74.377L124.119 74.522L124.19 74.6604L124.234 74.8292L124.285 75.023L123.432 75.1917L123.36 74.994L123.266 74.8292L123.146 74.6895L123.004 74.5629L122.818 74.4693L122.626 74.3981L122.413 74.3533H122.152H121.989L121.846 74.377L121.681 74.4232L121.539 74.4694L121.396 74.5418L121.279 74.613L121.161 74.7067L121.064 74.8082L120.948 74.9545L120.874 75.0955L120.806 75.2419L120.754 75.4053L120.709 75.5978L120.688 75.7678L120.667 75.9577V76.1765V76.365L120.688 76.5614L120.709 76.7249L120.754 76.9147L120.806 77.0848L120.874 77.2298L120.971 77.3761L121.064 77.5172L121.161 77.6121L121.28 77.7083L121.396 77.7795L121.539 77.8533L121.681 77.9008L121.846 77.9469L121.989 77.9707H122.152L122.413 77.9469L122.626 77.9272L122.818 77.9008L123.004 77.8533L123.146 77.7795L123.288 77.7083L123.411 77.6121L123.549 77.5172V76.8686L122.178 76.8685ZM113.78 76.1988V76.0314L113.805 75.8363L113.851 75.6676L113.873 75.4751L114.015 75.0955L114.184 74.7369L114.276 74.5629L114.374 74.3981L114.49 74.2584L114.631 74.116L114.776 73.9908L114.917 73.8721L115.081 73.7785L115.223 73.6809L115.484 73.6085L115.744 73.532L116.001 73.4846H116.312H116.599L116.854 73.532L117.115 73.6085L117.354 73.6967L117.561 73.8009L117.775 73.9406L117.97 74.0843L118.154 74.2834L118.301 74.4692L118.44 74.6604L118.559 74.8753L118.679 75.1152L118.749 75.3881L118.794 75.6504L118.844 75.9048V76.1764V76.4651L118.794 76.7248L118.749 76.9884L118.679 77.2296L118.559 77.4696L118.44 77.6884L118.319 77.9006L118.154 78.0931L117.989 78.2592L117.775 78.4068L117.59 78.5505L117.354 78.6679L117.115 78.739L116.854 78.8102L116.599 78.859H116.312H116.049L115.789 78.8102L115.531 78.739L115.298 78.6679L115.058 78.5505L114.846 78.4319L114.656 78.2592L114.49 78.0931L114.328 77.9006L114.184 77.7082L114.065 77.4933L113.968 77.2547L113.899 77.0135L113.829 76.7551L113.805 76.4835L113.78 76.1988ZM114.824 76.1764L114.846 76.5112L114.917 76.821L114.963 76.9884L115.033 77.1348L115.102 77.2811L115.199 77.3971L115.298 77.5171L115.414 77.6383L115.531 77.7306L115.672 77.8097L115.817 77.8756L115.954 77.927L116.146 77.9468L116.312 77.9705L116.502 77.9468L116.671 77.927L116.833 77.8756L116.974 77.8097L117.115 77.7306L117.237 77.6383L117.328 77.5171L117.447 77.3971L117.519 77.2547L117.59 77.1124L117.656 76.9647L117.705 76.821L117.776 76.4836L117.804 76.1514L117.776 75.8126L117.705 75.5028L117.656 75.3367L117.59 75.1917L117.519 75.073L117.447 74.928L117.354 74.8081L117.237 74.7066L117.115 74.6129L116.973 74.5417L116.833 74.4693L116.671 74.4231L116.502 74.3981L116.312 74.377L116.122 74.3981L115.954 74.4231L115.789 74.4693L115.649 74.5417L115.531 74.6129L115.388 74.7066L115.298 74.8291L115.199 74.9544L115.102 75.073L115.033 75.2141L114.963 75.3565L114.917 75.5028L114.846 75.8363L114.824 76.1764ZM99.1613 78.7865V73.5557H100.039L102.404 77.0636V73.5557H103.352V78.7865H102.425L100.108 75.3881V78.7865H99.1613ZM93.6295 78.7865V73.5557H94.6485V75.6227H96.94V73.5557H97.9317V78.7865H96.94V76.5112H94.6485V78.7865H93.6295ZM83.5315 78.7865V73.5557H87.2411V74.4482H84.5454V75.5977H87.0526V76.4836H84.5454V77.9007H87.3386V78.7865H83.5315ZM126.435 78.7865V76.5824L124.614 73.5557H125.796L126.956 75.6227L128.115 73.5557H129.275L127.451 76.6075V78.7865H126.435ZM110.208 78.7865V73.6085H111.228V77.9007H113.498V78.7865H110.208ZM104.342 76.1988V76.0314L104.366 75.8363L104.39 75.6676L104.438 75.4751L104.558 75.0954L104.723 74.7369L104.84 74.5629L104.935 74.3981L105.053 74.2583L105.197 74.116L105.309 73.9907L105.479 73.8721L105.621 73.7785L105.785 73.6809L106.023 73.6084L106.283 73.532L106.569 73.4845H106.873H107.156L107.417 73.532L107.673 73.6084L107.913 73.6967L108.128 73.8009L108.338 73.9406L108.531 74.0843L108.716 74.2833L108.86 74.4692L108.998 74.6603L109.12 74.8752L109.212 75.1151L109.311 75.388L109.355 75.6504L109.406 75.9048V76.1763V76.465L109.355 76.7247L109.311 76.9884L109.212 77.2296L109.12 77.4695L108.998 77.6884L108.86 77.9006L108.716 78.0931L108.531 78.2592L108.338 78.4068L108.128 78.5505L107.913 78.6678L107.673 78.739L107.417 78.8102L107.156 78.8589H106.873H106.614L106.329 78.8102L106.096 78.739L105.858 78.6678L105.621 78.5505L105.405 78.4319L105.218 78.2592L105.053 78.0931L104.887 77.9006L104.748 77.7081L104.625 77.4933L104.536 77.2547L104.438 77.0134L104.39 76.755L104.342 76.4835L104.342 76.1988ZM105.383 76.1764L105.405 76.5112L105.48 76.821L105.526 76.9884L105.598 77.1347L105.664 77.2811L105.767 77.3971L105.858 77.517L105.97 77.6383L106.096 77.7306L106.213 77.8097L106.378 77.8756L106.518 77.927L106.71 77.9468L106.873 77.9705L107.061 77.9468L107.228 77.927L107.393 77.8756L107.536 77.8097L107.674 77.7306L107.798 77.6383L107.891 77.517L107.985 77.3971L108.082 77.2547L108.149 77.1123L108.222 76.9647L108.268 76.821L108.338 76.4835L108.362 76.1513L108.338 75.8125L108.268 75.5027L108.222 75.3367L108.149 75.1916L108.082 75.073L108.013 74.928L107.891 74.808L107.798 74.7065L107.673 74.6129L107.536 74.5417L107.393 74.4692L107.228 74.4231L107.061 74.398L106.873 74.377L106.683 74.398L106.518 74.4231L106.352 74.4692L106.213 74.5417L106.07 74.6129L105.951 74.7065L105.858 74.8291L105.738 74.9544L105.664 75.073L105.598 75.2141L105.526 75.3564L105.48 75.5027L105.405 75.8363L105.383 76.1764ZM91.5914 76.8684L92.6326 77.1796L92.5858 77.3971L92.4948 77.5922L92.422 77.757L92.3258 77.927L92.2062 78.0931L92.0905 78.2078L91.9709 78.3304L91.8293 78.4543L91.6876 78.5505L91.5225 78.6454L91.3574 78.7206L91.1911 78.7667L91.0026 78.8102L90.8141 78.8419L90.6283 78.859H90.4099H90.1279L89.8887 78.8419L89.6547 78.7667L89.4169 78.6929L89.2037 78.5992L88.9945 78.478L88.7995 78.3303L88.6383 78.1695L88.4746 77.9704L88.3316 77.7569L88.2107 77.517L88.095 77.281L88.0222 77.0134L87.9728 76.7247L87.926 76.465V76.1763L87.9494 75.9047L87.9728 75.6226L88.0222 75.3564L88.1184 75.0953L88.2107 74.8541L88.3316 74.6129L88.4746 74.398L88.6384 74.2121L88.8268 74.0368L89.0153 73.8931L89.2259 73.7784L89.439 73.6558L89.6795 73.582L89.9407 73.5318L90.1981 73.4844H90.4606H90.7167L90.9299 73.5147L91.169 73.5556L91.3575 73.6334L91.5693 73.6966L91.7357 73.8008L91.9268 73.9181L92.0633 74.0368L92.2582 74.2266L92.3986 74.448L92.5143 74.7064L92.6326 74.9938L91.546 75.2614L91.4965 75.0729L91.4029 74.9028L91.2873 74.7367L91.1443 74.6128L90.9792 74.5219L90.8141 74.448L90.6283 74.3979L90.4099 74.3768L90.2695 74.3979H90.1279L89.9836 74.448L89.8666 74.4928L89.747 74.5415L89.6313 74.6127L89.5378 74.6892L89.439 74.8078L89.322 74.9541L89.2258 75.0952L89.1556 75.2613L89.088 75.4577L89.0386 75.6225L88.9945 75.8123L88.9711 76.0048V76.1985V76.3844L88.9945 76.5822L89.0386 76.7549L89.088 76.9394L89.1556 77.1121L89.2258 77.2545L89.322 77.4192L89.439 77.5432L89.5378 77.6381L89.6313 77.7303L89.747 77.8094L89.8666 77.8529L89.9836 77.9004L90.1045 77.9465L90.2448 77.9703H90.3839L90.5984 77.9465L90.7908 77.9004L90.9792 77.8305L91.1443 77.7079L91.2873 77.5431L91.4029 77.3506L91.4965 77.1344L91.5914 76.8684ZM80.026 78.7865V74.4481H78.5586V73.5557H82.5359V74.4481H81.0451V78.7865H80.026Z" fill="#2C2C2C"/>
</svg>
