<svg width="131" height="36" viewBox="0 0 131 36" fill="none" xmlns="http://www.w3.org/2000/svg">
<g clip-path="url(#clip0_120_2128)">
<path d="M17.0488 7.75635C19.3178 13.4888 15.6191 17.1675 11.9352 20.8531C8.5056 24.6175 5.48475 28.5313 11.5607 35.5755C9.29003 29.8448 12.9899 26.1637 16.6709 22.4833C20.1033 18.7092 23.1242 14.8011 17.0488 7.75635Z" fill="#2C2C2C"/>
<path d="M11.5618 0.425293C13.8336 6.1594 10.136 9.83645 6.44873 13.5192C3.02026 17.2882 0.000544548 21.2019 6.07818 28.2444C3.80697 22.5097 7.50623 18.8332 11.1895 15.1505C14.6203 11.3815 17.6371 7.4689 11.5618 0.425293ZM104.791 23.1262V34.8424H109.944V30.5535H115.607V27.9884H109.944V25.6912H121.177V34.8424H126.332V25.6912H131.001V23.1256M93.7332 32.2995V30.2685H100.454V27.7029H93.7327V25.6907H102.365V23.1262H88.5797V34.8419H102.471V32.3001" fill="#6A6A6A"/>
<path d="M39.3772 23.127H25.0967V25.6921H29.6602V34.8433H34.8137V25.6921H39.3772M43.28 30.4034L45.6641 25.8686L47.9467 30.4034H43.28ZM49.5531 23.1265H44.0291L37.5963 34.8427H40.9461L42.0036 32.8311H49.2265L50.2806 34.8427H55.9882" fill="#2C2C2C"/>
<path d="M82.2562 23.1251V28.9812L74.0139 23.1251H70.0137V34.8408H73.5413V28.3943L82.0042 34.8402H85.7827V23.1245" fill="#6A6A6A"/>
<path d="M68.2631 23.1265H54.2812V25.6915H58.8442V34.8427H63.9988V25.6915H68.2631" fill="#2C2C2C"/>
</g>
<defs>
<clipPath id="clip0_120_2128">
<rect width="131" height="36" fill="white"/>
</clipPath>
</defs>
</svg>
