<svg width="118" height="23" viewBox="0 0 118 23" fill="none" xmlns="http://www.w3.org/2000/svg">
<g clip-path="url(#clip0_120_2111)">
<path d="M21.6509 9.8817C21.6509 9.8817 22.1894 3.41986 22.2442 2.7872C22.2602 2.41937 22.206 2.0519 22.0849 1.70671C21.9637 1.36151 21.7782 1.04565 21.5393 0.777954C21.3004 0.510255 21.0129 0.296197 20.6942 0.148539C20.3754 0.000880055 20.0318 -0.0773565 19.6839 -0.0815074H4.27169C3.56115 -0.133622 2.85977 0.112257 2.31918 0.602977C1.77858 1.0937 1.4422 1.78983 1.38276 2.5409C1.3143 3.29912 0.0364146 18.9225 -0.0411712 19.8208C-0.0866991 20.2033 -0.055642 20.5917 0.0499821 20.9607C0.155606 21.3297 0.333433 21.6711 0.571902 21.9626C0.810371 22.2541 1.10414 22.4893 1.43413 22.6528C1.76411 22.8163 2.12291 22.9045 2.48721 22.9116H17.8081C19.8436 22.9116 20.6332 21.7719 20.8066 20.0139C20.9116 18.9611 21.4136 12.6007 21.4136 12.6007H12.1489L11.7519 17.5171H9.40604L10.4147 5.31301H12.7605L12.3862 9.8817H21.6509Z" fill="#2C2C2C"/>
<path d="M36.9391 1.88664C36.5832 2.89105 33.6624 11.8197 33.6624 11.8197L34.9622 -0.0883789H24.9344L22.834 22.9116H30.3906C32.2884 22.9116 32.9359 21.8589 33.2522 21.0139C33.6327 20.0095 36.4152 12.4957 36.4152 12.4957L35.3922 22.9116H45.4249L47.4907 -0.0787209H39.6178C39.0126 -0.0830136 38.4227 0.106969 37.9388 0.462034C37.4548 0.817099 37.1036 1.3176 36.9391 1.88664Z" fill="#2C2C2C"/>
<path d="M85.0175 -0.0883789L84.0778 10.3995H81.5305L82.4702 -0.0883789H72.4344C72.4344 -0.0883789 71.4699 11.0227 71.3661 12.0904C71.2474 13.3706 71.9893 15.1822 74.2101 15.1822H83.6524L83.4446 17.5155H70.8813L70.3867 22.9116H90.3644C91.7196 22.9116 93.0254 22.0469 93.2035 20.2015C93.3172 19.0179 95.0434 -0.0883789 95.0434 -0.0883789H85.0175Z" fill="#2C2C2C"/>
<path d="M109.762 -0.0883789H96.9741L95.0439 22.9116H104.458L105.057 15.7942H114.206C115.826 15.7942 116.898 14.9341 117.074 12.9627C117.139 12.1944 117.886 3.47759 117.932 2.70931C118.048 1.00847 116.749 -0.0883789 115.148 -0.0883789H109.762ZM105.46 11.0251L105.924 5.31855H108.286L107.822 11.0251H105.46Z" fill="#2C2C2C"/>
<path d="M58.0697 7.63788L58.2669 5.30889H69.928L70.3867 -0.0883789H49.3996L47.4912 22.9116H66.07C67.2536 22.9116 68.5334 22.1772 68.6986 20.2541C68.8224 18.8045 69.3959 11.9721 69.5014 10.7303C69.639 9.07297 68.6389 7.63788 66.6801 7.63788H58.0697ZM59.5743 18.128H57.1981L57.6568 12.4263H60.0285L59.5743 18.128Z" fill="#2C2C2C"/>
</g>
<defs>
<clipPath id="clip0_120_2111">
<rect width="118" height="23" fill="white"/>
</clipPath>
</defs>
</svg>
