<svg width="214" height="120" viewBox="0 0 214 120" fill="none" xmlns="http://www.w3.org/2000/svg">
<path d="M212.7 0.5V119.5H0.5V0.5H212.7Z" fill="white"/>
<path d="M212.7 0.5V119.5H0.5V0.5H212.7Z" stroke="#D9D9D9"/>
<path d="M71.0157 30.6289H150.162C150.876 30.6289 151.455 31.2033 151.455 31.9119V87.9993C151.455 88.7079 150.876 89.2823 150.162 89.2823H71.0157C70.3017 89.2823 69.7229 88.7079 69.7229 87.9993V31.9119C69.7229 31.2033 70.3017 30.6289 71.0157 30.6289Z" fill="#4A4A4A"/>
<path fill-rule="evenodd" clip-rule="evenodd" d="M79.1309 78.7534V50.1953H87.2379V78.7534H79.1309Z" fill="white"/>
<path d="M87.6836 43.2575C87.6836 44.4416 87.1957 45.5771 86.3273 46.4144C85.4588 47.2517 84.2809 47.722 83.0527 47.722C81.8246 47.722 80.6467 47.2517 79.7782 46.4144C78.9098 45.5771 78.4219 44.4416 78.4219 43.2575C78.4219 42.0734 78.9098 40.9379 79.7782 40.1006C80.6467 39.2633 81.8246 38.793 83.0527 38.793C84.2809 38.793 85.4588 39.2633 86.3273 40.1006C87.1957 40.9379 87.6836 42.0734 87.6836 43.2575Z" fill="white"/>
<path fill-rule="evenodd" clip-rule="evenodd" d="M96.7707 67.0833V56.2082H90V50.196H96.7707V41.7082L104.967 38.8789V50.196H111.292L113.697 56.2082H104.967V66.1107C104.967 71.2388 106.481 73.4492 110.668 73.4492C112.896 73.4492 114.232 73.1839 116.192 72.6534L118.419 78.312C116.281 79.1077 113.341 79.9035 109.51 79.9035C101.492 79.9035 96.7707 76.8089 96.7707 67.0833Z" fill="white"/>
<path fill-rule="evenodd" clip-rule="evenodd" d="M132.496 78.9302H125.903L114.5 50.1953H123.052L129.681 69.4609L137.307 50.1953H145.057L132.496 78.9302Z" fill="white"/>
</svg>
