<svg width="100" height="43" viewBox="0 0 100 43" fill="none" xmlns="http://www.w3.org/2000/svg">
<g clip-path="url(#clip0_120_2135)">
<path d="M52.5997 12.5962C53.4346 8.41017 55.2686 4.94998 58.885 2.51786C60.8845 1.19883 63.1617 0.365134 65.5367 0.0824687C65.9181 0.0339027 66.7842 -0.083856 67.1305 0.0806136C67.0928 0.184949 67.1025 0.192154 66.9412 0.252616C66.2037 0.529496 65.4067 0.611567 64.6564 0.891831C61.871 1.93213 59.6343 3.9277 58.5416 6.73121C57.5796 9.22761 57.6555 12.0078 58.7523 14.4474C59.8521 17.0025 61.9277 19.006 64.5121 20.007C65.3876 20.3414 66.2174 20.5477 67.154 20.5832L67.1581 30.7454C66.3783 30.6422 65.5989 30.544 64.8234 30.4085C58.5108 29.305 53.5364 24.7921 52.6024 18.2292L52.4412 18.4482C52.4416 18.555 52.4378 18.666 52.4357 18.7733C52.4088 18.7995 52.3818 18.8257 52.3549 18.8518C51.4792 18.8359 49.0139 18.8414 48.29 18.8413L32.1963 18.8524L32.1997 11.0845L52.4386 11.0866L52.4425 12.1901C52.4848 12.312 52.5366 12.492 52.5997 12.5962Z" fill="#2C2C2C"/>
<path d="M52.4429 12.1914C52.4851 12.3133 52.5369 12.4933 52.6 12.5975C52.6011 12.7928 52.5095 13.3779 52.4797 13.6011C52.4345 13.0664 52.4298 12.731 52.4429 12.1914Z" fill="#D6FCD7"/>
<path d="M52.4414 18.4487C52.4316 17.9956 52.4392 17.7164 52.4766 17.2656C52.5331 17.612 52.5738 17.8803 52.6026 18.2297L52.4414 18.4487Z" fill="#D6FCD7"/>
<path d="M32.2003 0.0614195L52.4402 0.0605469L52.4421 7.85686L32.1924 7.85577L32.2003 0.0614195Z" fill="#2C2C2C"/>
<path d="M32.1952 22.0859C34.429 22.1189 36.7463 22.0886 38.9889 22.0886L52.4411 22.0867L52.4426 29.8699C49.9833 29.8164 47.3606 29.8596 44.8901 29.8596L32.1943 29.8694L32.1952 22.0859Z" fill="#2C2C2C"/>
<path d="M32.6344 35.9142C33.7001 35.9287 34.9008 35.8526 35.9498 35.9496C37.581 36.1005 38.2589 38.2063 36.7719 39.216C37.7444 39.9285 37.8849 40.7639 37.4689 41.8677C36.6957 43.0742 35.7403 42.8922 34.482 42.8968C33.8664 42.8989 33.244 42.8936 32.6279 42.8943L32.6344 35.9142Z" fill="#2C2C2C"/>
<path d="M33.7676 39.7767C34.4235 39.775 35.5743 39.6392 36.1321 39.9966C36.6431 40.324 36.6117 41.0864 36.2845 41.5622C35.6576 42.0289 34.5794 41.8876 33.773 41.8768L33.7676 39.7767Z" fill="#D9D9D9"/>
<path d="M33.7819 36.9653C34.4875 36.9551 35.417 36.8687 36.0636 37.1647C36.678 37.4458 36.5162 38.0644 36.1687 38.5037C35.5782 38.8885 34.5138 38.766 33.7747 38.7582C33.7659 38.1605 33.7683 37.5628 33.7819 36.9653Z" fill="#D9D9D9"/>
<path d="M52.5681 35.8709C53.8091 35.7522 55.0931 36.3662 55.3597 37.6845C55.4758 38.2137 55.4313 38.763 55.4412 39.2986C55.4773 41.2599 55.4538 42.4547 53.2406 42.9461C50.102 43.1533 50.1312 40.9219 50.2149 38.5882C50.2751 36.9116 50.8602 36.0432 52.5681 35.8709Z" fill="#2C2C2C"/>
<path d="M52.7348 36.9019C54.3586 36.8678 54.3507 38.3729 54.3038 39.5706C54.2573 40.7576 54.4173 41.6028 53.0244 41.9057C50.9561 41.9328 51.4263 40.1705 51.369 38.7159C51.3269 37.6424 51.6531 37.0747 52.7348 36.9019Z" fill="#D9D9D9"/>
<path d="M94.9915 35.9136L96.1401 35.9199L96.1397 38.7134C96.7896 38.7068 97.6195 38.65 98.2415 38.7396C100.075 39.004 100.43 41.0823 99.3558 42.365C98.2979 43.1512 96.3155 42.8954 94.978 42.8918C94.9812 40.6093 94.9297 38.1813 94.9915 35.9136Z" fill="#2C2C2C"/>
<path d="M96.14 39.7262C96.8845 39.7202 97.8866 39.6019 98.5335 40.0345C99.1024 40.4152 98.9273 41.0453 98.5743 41.5334C97.9292 42.0167 96.9666 41.8763 96.1396 41.8649L96.14 39.7262Z" fill="#D9D9D9"/>
<path d="M41.6485 35.919C42.7054 35.9247 44.2067 35.8225 45.1829 36.0046C46.6066 36.2704 47.0308 38.6522 45.9599 39.5853C45.185 40.2605 44.6867 40.194 43.7798 40.1757L42.7774 40.174L42.7772 42.8925L41.6475 42.8936L41.6485 35.919Z" fill="#2C2C2C"/>
<path d="M42.8829 36.9698C43.5277 36.9603 44.2756 36.9287 44.9009 37.0425C45.5849 37.6048 45.6723 38.1852 45.1165 38.891C44.5826 39.2487 43.454 39.1334 42.777 39.1193C42.7751 38.6542 42.7435 37.4398 42.8005 37.0309L42.8829 36.9698Z" fill="#D9D9D9"/>
<path d="M76.1463 35.917L77.2694 35.9227C77.2551 37.5952 77.2585 39.2679 77.2796 40.9405C78.1978 39.3671 79.4699 37.4696 80.4596 35.9185L81.5361 35.9191L81.5385 40.3456C81.5392 41.1396 81.5645 42.1084 81.5217 42.8917L80.3962 42.889L80.4002 37.8448C80.093 38.2353 79.5976 39.0762 79.3089 39.5314C78.6015 40.6616 77.8807 41.7833 77.1465 42.8961L76.145 42.8949C76.1068 40.6179 76.1443 38.2034 76.1463 35.917Z" fill="#2C2C2C"/>
<path d="M86.4327 35.9136L90.8168 35.9203L90.8126 42.8949L89.6368 42.8916C89.6347 42.1334 89.6919 37.2211 89.5788 36.9838L89.3736 36.965L87.5565 36.9705C87.5616 38.3575 87.6351 39.7622 87.3393 41.1257C87.1793 41.8625 86.2498 43.229 85.4383 42.9927C85.2427 42.8288 85.1592 42.4077 85.0713 42.1324C86.753 41.3461 86.3884 39.4902 86.4322 37.9456C86.4513 37.2754 86.4313 36.5853 86.4327 35.9136Z" fill="#2C2C2C"/>
<path d="M24.0195 35.9263C25.5512 35.8944 27.1723 35.9199 28.7112 35.9185L28.7129 36.964L25.1671 36.9725C25.1546 37.5891 25.1643 38.2416 25.1632 38.8612L28.1978 38.865L28.1936 39.9231C27.1961 39.909 26.1985 39.9096 25.2011 39.9249C25.1217 40.1102 25.1601 41.5667 25.1636 41.87C26.3445 41.8658 27.5254 41.8703 28.7062 41.8834L28.7064 42.8932L24.0316 42.8927C24.0414 40.5706 24.0373 38.2484 24.0195 35.9263Z" fill="#2C2C2C"/>
<path d="M12.0399 35.9224L13.1667 35.9209C12.6945 37.2089 12.7064 38.3722 11.6435 39.2796C12.5887 39.8619 12.6875 40.8282 12.9653 41.841L13.289 42.8949L12.0513 42.8922C11.8037 41.9472 11.5742 40.4375 10.8186 39.9144C10.2678 39.8205 9.8455 39.8365 9.29186 39.8374L9.28926 42.8921L8.15668 42.8979L8.15527 35.922L9.29317 35.9266C9.2847 36.8951 9.28763 37.8636 9.30185 38.832C10.1876 38.8249 11.0691 38.9219 11.4071 37.9261C11.6299 37.2695 11.8153 36.5822 12.0399 35.9224Z" fill="#2C2C2C"/>
<path d="M61.791 35.8705C62.67 35.7961 63.3305 36.0187 64.0603 36.4887L63.4996 37.3774C61.3635 36.0585 60.3879 37.4676 60.6268 39.493C60.7321 40.3859 60.313 41.4891 61.6516 41.8546C62.2948 42.0303 62.9375 41.7854 63.4457 41.4714L63.5191 41.4888C63.6966 41.6822 63.913 42.0838 64.0556 42.327C62.4398 43.3603 59.9017 43.2186 59.5046 41.0229C59.4295 40.6083 59.4468 38.0843 59.5446 37.6327C59.6107 37.3212 59.7438 37.0279 59.9346 36.7735C60.4095 36.1532 61.0577 35.9533 61.791 35.8705Z" fill="#2C2C2C"/>
<path d="M67.4686 35.9136C69.1048 35.939 70.7904 35.9191 72.4303 35.9199L72.4428 36.9853L70.518 36.9881L70.5188 40.954L70.5189 42.8955L69.3798 42.8977L69.3802 36.9856L67.459 36.9912L67.4686 35.9136Z" fill="#2C2C2C"/>
<path d="M0.0101665 35.9266C1.52965 35.8931 3.15198 35.9212 4.67965 35.9205L4.68455 36.9625C3.50323 36.9551 2.32185 36.9603 1.14063 36.978L1.13966 39.3713L1.13838 42.8946L0.0160625 42.8968C-0.0495944 40.6964 0.00656176 38.1512 0.0101665 35.9266Z" fill="#2C2C2C"/>
</g>
<defs>
<clipPath id="clip0_120_2135">
<rect width="100" height="43" fill="white"/>
</clipPath>
</defs>
</svg>
