<svg width="152" height="30" viewBox="0 0 152 30" fill="none" xmlns="http://www.w3.org/2000/svg">
<g clip-path="url(#clip0_456_3693)">
<path fill-rule="evenodd" clip-rule="evenodd" d="M6.46312 28.8917H0.338867L6.46312 18.0698V28.8917Z" fill="#2C2C2C"/>
<path fill-rule="evenodd" clip-rule="evenodd" d="M16.0439 16.1245H22.053V22.2443L16.0439 16.1245Z" fill="#2C2C2C"/>
<path fill-rule="evenodd" clip-rule="evenodd" d="M21.852 28.8919H11.1777V18.0308L21.852 28.8919Z" fill="#2C2C2C"/>
<path fill-rule="evenodd" clip-rule="evenodd" d="M26.7656 17.9922L32.8899 28.8923H26.7656V17.9922Z" fill="#2C2C2C"/>
<path fill-rule="evenodd" clip-rule="evenodd" d="M22.0532 14.5406H14.4891L11.2158 11.1973H22.0532V14.5406Z" fill="#2C2C2C"/>
<path fill-rule="evenodd" clip-rule="evenodd" d="M20.1617 6.22168L22.0527 9.59436V9.62372H11.2441L13.1639 6.22168H20.1617Z" fill="#2C2C2C"/>
<path fill-rule="evenodd" clip-rule="evenodd" d="M16.6763 0.0141602L19.4409 4.93144H13.8926L16.6763 0.0141602Z" fill="#2C2C2C"/>
<path d="M141.341 0.0332031C141.361 1.14766 141.726 2.02749 142.417 2.65315C143.137 3.27881 144.039 3.61119 145.114 3.61119C146.189 3.61119 147.092 3.28859 147.792 2.65315C148.512 2.02749 148.867 1.14766 148.886 0.0332031H146.429C146.41 0.82505 145.91 1.31385 145.095 1.31385C144.279 1.31385 143.78 0.82505 143.761 0.0332031H141.341ZM141.898 18.5683L147.773 10.4543V18.5683H151.363V4.34439H148.243L142.474 12.3802V4.34439H138.884V18.5683H141.898ZM126.424 18.5683L132.299 10.4543V18.5683H135.89V4.34439H132.769L127 12.3802V4.34439H123.41V18.5683H126.424ZM111.556 18.5683V12.6539H116.825V18.5683H120.416V4.34439H116.825V9.4083H111.556V4.34439H107.966V18.5683H111.556ZM103.31 16.7012C104.711 15.2543 105.402 13.5044 105.402 11.4514C105.402 9.39854 104.702 7.64866 103.31 6.20181C101.909 4.75498 100.151 4.0511 98.0395 4.0511C95.9185 4.0511 94.1614 4.76475 92.7697 6.20181C91.3682 7.64866 90.6773 9.39854 90.6773 11.4514C90.6773 13.5044 91.378 15.2543 92.7697 16.7012C94.1712 18.148 95.9282 18.8518 98.0395 18.8518C100.151 18.8617 101.909 18.148 103.31 16.7012ZM95.3997 14.3452C94.699 13.5924 94.3636 12.6148 94.3636 11.4613C94.3636 10.2979 94.699 9.33007 95.3997 8.57739C96.1005 7.82464 96.9741 7.44332 98.0395 7.44332C99.0958 7.44332 99.9597 7.8344 100.66 8.57739C101.361 9.33007 101.716 10.3077 101.716 11.4613C101.716 12.6246 101.361 13.5924 100.66 14.3452C99.9597 15.0979 99.1056 15.4792 98.0395 15.4792C96.9741 15.4792 96.1005 15.0979 95.3997 14.3452ZM77.4881 18.5683V9.88731L80.9918 15.7333L84.5338 9.88731V18.5683H88.1044V4.34439H84.5526L81.0016 9.80915L77.4686 4.34439H73.898V18.5683H77.4881ZM60.2767 18.5683V9.88731L63.79 15.7333L67.3225 9.88731V18.5683H70.8936V4.34439H67.3417L63.79 9.80915L60.2575 4.34439H56.6867V18.5683H60.2767ZM47.2027 8.83154L48.6618 12.6344H45.7436L47.2027 8.83154ZM43.4302 18.5683L44.6109 15.5573H49.7944L50.9752 18.5683H54.834L48.9593 4.2564H45.5036L39.6289 18.5683H43.4302Z" fill="#2C2C2C"/>
<path fill-rule="evenodd" clip-rule="evenodd" d="M43.1603 25.5286L42.3252 23.6223L41.49 25.5286H43.1603ZM67.5421 25.0495C67.5421 23.984 66.7934 23.0944 65.7183 23.0944C64.6335 23.0944 63.904 23.984 63.904 25.0495C63.904 26.1151 64.6528 27.0047 65.7279 27.0047C66.8126 27.0047 67.5421 26.1151 67.5421 25.0495ZM81.2787 23.1824V25.0495H82.3343C82.9297 25.0495 83.5343 24.7856 83.5343 24.1013C83.5343 23.4072 82.9681 23.1824 82.3629 23.1824H81.2787ZM95.4753 25.0495C95.4753 23.984 94.7272 23.0944 93.652 23.0944C92.5671 23.0944 91.8378 23.984 91.8378 25.0495C91.8378 26.1151 92.5866 27.0047 93.6611 27.0047C94.746 27.0047 95.4753 26.1151 95.4753 25.0495ZM109.461 25.0495C109.461 23.984 108.713 23.0944 107.638 23.0944C106.553 23.0944 105.824 23.984 105.824 25.0495C105.824 26.1151 106.572 27.0047 107.647 27.0047C108.732 27.0047 109.461 26.1151 109.461 25.0495ZM112.428 25.333V26.9265H113.752C114.07 26.9265 114.511 26.8776 114.731 26.6235C114.856 26.4769 114.895 26.2813 114.895 26.0956C114.895 25.4504 114.223 25.3428 113.714 25.3428H112.428V25.333ZM141.705 25.5188V26.9265H143.222C143.692 26.9265 144.278 26.7799 144.278 26.1934C144.278 25.597 143.567 25.5188 143.126 25.5188H141.705ZM141.705 23.1628V24.5216H143.02C143.5 24.5216 143.99 24.3555 143.99 23.7885C143.99 23.2801 143.481 23.153 143.068 23.153H141.705V23.1628ZM150.594 25.0495C150.594 23.984 149.845 23.0944 148.77 23.0944C147.685 23.0944 146.956 23.984 146.956 25.0495C146.956 26.1151 147.705 27.0047 148.78 27.0047C149.864 27.0047 150.594 26.1151 150.594 25.0495ZM43.5922 26.5257H41.0581L40.4437 27.9236H39.3398L41.9124 22.1265H42.7571L45.3297 27.9236H44.197L43.5922 26.5257ZM46.9327 24.9909L49.6013 22.1656H50.9932L48.5262 24.727L51.0219 27.9236H49.7069L47.7967 25.4699L46.9327 26.3595V27.9236H45.8961V22.1559H46.9327V24.9909ZM55.6392 27.9236H51.3964V22.1559H52.433V26.907H54.9576V22.1559H55.9944V26.907H56.6855L56.5703 29.0968H55.6392V27.9236ZM58.3173 26.076L61.0819 22.1656H61.9842V27.9335H60.9475V24.0231L58.1925 27.9335H57.2807V22.1656H58.3173V26.076ZM62.8481 25.0495C62.8481 23.3876 64.096 22.0776 65.7375 22.0776C67.3885 22.0776 68.6077 23.3876 68.6077 25.0495C68.6077 26.7115 67.3597 28.0214 65.7183 28.0214C64.0672 28.0214 62.8481 26.7115 62.8481 25.0495ZM70.518 24.5216H73.0714V22.1656H74.1082V27.9335H73.0714V25.5481H70.518V27.9335H69.4715V22.1656H70.5083V24.5216H70.518ZM76.2773 23.1726V24.5216H79.1186V25.5286H76.2773V26.9265H79.493V27.9335H75.2307V22.1656H79.4547V23.1726H76.2773ZM81.2787 26.0565V27.9236H80.2419V22.1559H82.4208C83.0929 22.1559 83.7936 22.3611 84.2252 22.9086C84.4846 23.241 84.5997 23.6516 84.5997 24.0817C84.5997 25.4015 83.5154 26.0467 82.3245 26.0467H81.2787V26.0565ZM86.3274 24.5216H88.8808V22.1656H89.9176V27.9335H88.8808V25.5481H86.3274V27.9335H85.2906V22.1656H86.3274V24.5216ZM90.7815 25.0495C90.7815 23.3876 92.0295 22.0776 93.6709 22.0776C95.3219 22.0776 96.5414 23.3876 96.5414 25.0495C96.5414 26.7115 95.2933 28.0214 93.652 28.0214C92.0009 28.0214 90.7815 26.7115 90.7815 25.0495ZM98.4512 23.1726V24.5216H101.292V25.5286H98.4512V26.9265H101.667V27.9335H97.4053V22.1656H101.619V23.1726H98.4512ZM104.758 25.0495C104.758 23.3876 106.006 22.0776 107.647 22.0776C109.298 22.0776 110.518 23.3876 110.518 25.0495C110.518 26.7115 109.27 28.0214 107.628 28.0214C105.987 28.0214 104.758 26.7115 104.758 25.0495ZM112.428 23.1726V24.3359H113.743C114.405 24.3359 115.144 24.5021 115.586 25.0398C115.836 25.3428 115.941 25.7143 115.941 26.1151C115.941 26.5159 115.836 26.907 115.586 27.2198C115.154 27.7575 114.443 27.9236 113.791 27.9236H111.382V22.1559H115.567V23.1628H112.428V23.1726ZM123.534 27.9236H116.709V22.1559H117.745V26.907H119.781V22.1559H120.818V26.907H122.843V22.1559H123.88V26.907H124.571L124.456 29.0968H123.524V27.9236H123.534ZM126.212 23.1726V24.5216H129.053V25.5286H126.212V26.9265H129.428V27.9335H125.175V22.1656H129.389V23.1726H126.212ZM132.701 28.0214C131.06 28.0214 129.86 26.7016 129.86 25.0495C129.86 23.3974 131.079 22.0776 132.72 22.0776C133.622 22.0776 134.246 22.371 134.89 22.9966L135.053 23.153L134.362 23.9155L134.198 23.7591C133.767 23.3388 133.325 23.0944 132.72 23.0944C131.645 23.0944 130.935 23.9937 130.935 25.0495C130.935 26.0956 131.655 27.0047 132.72 27.0047C133.373 27.0047 133.786 26.7505 134.246 26.3009L134.41 26.1445L135.101 26.8972L134.947 27.0536C134.304 27.7086 133.632 28.0214 132.701 28.0214ZM137.164 23.1726H135.418V22.1656H139.958V23.1726H138.211V27.9236H137.164V23.1726ZM144.499 24.9126C144.997 25.1766 145.333 25.597 145.333 26.252C145.333 26.555 145.257 26.8483 145.094 27.1025C144.691 27.7281 143.913 27.9335 143.212 27.9335H140.668V22.1656H143.106C143.644 22.1656 144.239 22.2927 144.633 22.7033C144.902 22.9868 145.036 23.329 145.036 23.7298C145.036 24.2284 144.844 24.6291 144.499 24.9126ZM145.891 25.0495C145.891 23.3876 147.139 22.0776 148.78 22.0776C150.431 22.0776 151.65 23.3876 151.65 25.0495C151.65 26.7115 150.402 28.0214 148.76 28.0214C147.109 28.0214 145.891 26.7115 145.891 25.0495Z" fill="#2C2C2C"/>
</g>
<defs>
<clipPath id="clip0_456_3693">
<rect width="152" height="29.2844" fill="white"/>
</clipPath>
</defs>
</svg>
