<svg width="166" height="27" viewBox="0 0 166 27" fill="none" xmlns="http://www.w3.org/2000/svg">
<g clip-path="url(#clip0_456_3728)">
<path d="M19.96 6.75408C17.6804 4.47186 14.6845 3.33203 11.6911 3.33203C8.69779 3.33203 5.76094 4.44876 3.49155 6.6822L3.42224 6.75408L3.3863 6.78746L3.35035 6.8234C2.23106 7.96323 1.3916 9.27506 0.834517 10.6742C-0.846987 14.8869 0.0155863 19.8852 3.42224 23.2919C5.70189 25.5715 8.69779 26.7114 11.6911 26.7139C14.687 26.7114 17.6829 25.5715 19.96 23.2919C24.5219 18.7326 24.5219 11.3134 19.96 6.75408ZM17.0078 20.3396C15.5419 21.8055 13.6165 22.5371 11.6911 22.5371C9.76574 22.5371 7.84035 21.8029 6.37449 20.337C4.90863 18.8712 4.17442 16.9484 4.17442 15.023C4.17442 13.0976 4.90863 11.1722 6.37449 9.70634C7.84035 8.23792 9.76574 7.50627 11.6911 7.50627C13.6165 7.50627 15.5419 8.24048 17.0078 9.70378C19.9369 12.6381 19.9395 17.4079 17.0078 20.3396Z" fill="#2C2C2C"/>
<path d="M44.2398 3.88916H39.8012C39.4058 3.88916 39.031 4.05603 38.7666 4.34869L19.1328 26.1569H23.5689C23.9642 26.1569 24.3391 25.99 24.6035 25.6974L41.2054 7.25987V15.023H43.9883C44.7559 15.023 45.3797 14.3992 45.3797 13.6316V3.88916H44.2398Z" fill="#2C2C2C"/>
<path d="M66.9572 3.88916H62.7085C62.3131 3.88916 61.9383 4.05603 61.6739 4.34869L52.3422 14.7124V3.88916H49.5517C48.7867 3.88916 48.168 4.50272 48.168 5.2626V26.1595H52.3422V15.3311L61.6739 25.6948C61.9383 25.9875 62.3131 26.1543 62.7085 26.1543H66.9572L56.9323 15.023L66.9572 3.88916Z" fill="#2C2C2C"/>
<path d="M35.6892 17.3747C40.9031 19.2025 43.0133 21.3127 44.8412 26.5267C44.9439 26.8219 45.3829 26.75 45.3829 26.4368V18.2244C45.3829 17.4568 44.759 16.833 43.9914 16.833H35.779C35.4658 16.833 35.394 17.2694 35.6892 17.3747Z" fill="#2C2C2C"/>
<path d="M76.561 0C71.9478 0 68.21 3.73782 68.21 8.35104C68.21 12.9643 71.9478 16.7021 76.561 16.7021C81.1742 16.7021 84.912 12.9643 84.912 8.35104C84.912 3.73782 81.1717 0 76.561 0ZM80.8816 13.5727C80.8816 13.7164 80.7712 13.7909 80.6608 13.7909C80.5658 13.7909 80.4888 13.7344 80.4554 13.642C78.6276 8.42806 76.4814 6.28189 71.2675 4.45406C71.1365 4.40785 71.1083 4.29233 71.1211 4.20761C71.1365 4.12289 71.2007 4.02534 71.3368 4.02534H79.5492C80.2834 4.02534 80.8816 4.62349 80.8816 5.35771V13.5727Z" fill="#2C2C2C"/>
<path d="M91.9255 3.72266C93.2861 3.72266 94.3746 4.77007 94.3746 6.18458C94.3746 7.5991 93.2861 8.64651 91.9255 8.64651C90.5649 8.64651 89.4688 7.5991 89.4688 6.18458C89.4688 4.77007 90.5444 3.72266 91.9255 3.72266ZM91.9255 7.62991C92.6752 7.62991 93.2784 7.07283 93.2784 6.18715C93.2784 5.30147 92.6187 4.74439 91.9255 4.74439C91.2324 4.74439 90.5649 5.30147 90.5649 6.18715C90.5649 7.07283 91.2042 7.62991 91.9255 7.62991Z" fill="#2C2C2C"/>
<path d="M98.5564 4.79305H96.0252V5.56834H97.2241C98.3459 5.56834 98.885 6.11258 98.885 7.03677C98.885 8.09701 98.1765 8.56681 96.9057 8.56681H94.9727V3.80469H98.559V4.79305H98.5564ZM96.0252 6.55414V7.58101H96.9442C97.5219 7.58101 97.7889 7.43211 97.7889 7.04447C97.7889 6.6902 97.5655 6.55414 96.9853 6.55414H96.0252Z" fill="#2C2C2C"/>
<path d="M99.0114 3.80469H101.106V5.3835H101.984C103.324 5.3835 103.984 5.90721 103.984 6.96232C103.984 8.07134 103.214 8.56681 101.923 8.56681H100.051V4.79305H99.0088V3.80469H99.0114ZM101.106 6.3693V7.58101H101.951C102.577 7.58101 102.89 7.44495 102.89 6.96232C102.89 6.55414 102.585 6.3693 101.971 6.3693H101.106Z" fill="#2C2C2C"/>
<path d="M104.451 3.80469H108.091V4.79049H105.506V5.67616H107.922V6.62859H105.506V7.58101H108.153V8.56681H104.451V3.80469Z" fill="#2C2C2C"/>
<path d="M108.505 7.58101H109.021C109.198 7.2062 109.516 6.27432 109.516 4.37717V3.80469H112.979V7.58101H113.531V9.36264H112.546V8.56681H109.491V9.36264H108.505V7.58101ZM110.518 5.05747C110.489 6.19473 110.315 7.10608 110.109 7.58101H111.927V4.79305H110.525L110.518 5.05747Z" fill="#2C2C2C"/>
<path d="M114.075 8.56938V3.80469H115.13V6.72357L117.438 3.80469H118.316V8.56681H117.261V5.66333L114.94 8.56938H114.075Z" fill="#2C2C2C"/>
<path d="M122.347 6.66196H120.232V8.56681H119.177V3.80469H120.232V5.67616H122.347V3.80469H123.402V8.56681H122.347V6.66196Z" fill="#2C2C2C"/>
<path d="M124.265 3.80469H127.905V4.79049H125.32V5.67616H127.735V6.62859H125.32V7.58101H127.967V8.56681H124.265V3.80469Z" fill="#2C2C2C"/>
<path d="M131.858 6.66196H129.743V8.56681H128.688V3.80469H129.743V5.67616H131.858V3.80469H132.913V8.56681H131.858V6.66196Z" fill="#2C2C2C"/>
<path d="M136.946 6.66196H134.831V8.56681H133.775V3.80469H134.831V5.67616H136.946V3.80469H138.001V8.56681H136.946V6.66196Z" fill="#2C2C2C"/>
<path d="M140.507 3.80469H141.29L143.38 8.56681H142.278L141.891 7.68113H139.896L139.508 8.56681H138.42L140.507 3.80469ZM140.263 6.79289H141.501L140.887 5.37067L140.263 6.79289Z" fill="#2C2C2C"/>
<path d="M146.858 6.99569H146.05L144.833 8.56681H143.588L144.99 6.79802C144.309 6.58751 143.929 6.11002 143.929 5.40918C143.929 4.50296 144.589 3.80469 145.924 3.80469H147.919V8.56681H146.864V6.99569H146.858ZM146.858 6.0099V4.79305H145.857C145.251 4.79305 145.02 5.01126 145.02 5.40661C145.02 5.74034 145.334 6.01246 145.816 6.01246H146.858V6.0099Z" fill="#2C2C2C"/>
<path d="M91.3274 12.5918H92.1103L94.2 17.3539H93.0987L92.7111 16.4682H90.7164L90.3287 17.3539H89.2402L91.3274 12.5918ZM91.0809 15.58H92.3183L91.7047 14.1578L91.0809 15.58Z" fill="#2C2C2C"/>
<path d="M94.6162 12.5918H96.747C97.9921 12.5918 98.3925 13.095 98.3925 13.8086C98.3925 14.2784 98.1949 14.5968 97.9304 14.8304C98.3181 15.0152 98.5491 15.3464 98.5491 15.9394C98.5491 16.9406 97.7661 17.3539 96.6905 17.3539H94.6162V12.5918ZM95.6713 13.5802V14.4504H96.6571C97.0781 14.4504 97.2963 14.2938 97.2963 14.05C97.2963 13.7368 97.1475 13.5802 96.5673 13.5802H95.6713ZM95.6713 15.4029V16.3681H96.5827C97.2142 16.3681 97.4478 16.2244 97.4478 15.8778C97.4478 15.5312 97.2373 15.4029 96.6392 15.4029H95.6713Z" fill="#2C2C2C"/>
<path d="M99.2109 17.3565V12.5918H100.266V15.5107L102.574 12.5918H103.452V17.3539H102.397V14.4504L100.076 17.3565H99.2109Z" fill="#2C2C2C"/>
<path d="M105.958 12.5918H106.741L108.831 17.3539H107.73L107.342 16.4682H105.347L104.96 17.3539H103.871L105.958 12.5918ZM105.714 15.58H106.952L106.338 14.1578L105.714 15.58Z" fill="#2C2C2C"/>
<path d="M113.228 16.4583C112.799 17.0847 112.045 17.439 111.2 17.439C109.716 17.439 108.764 16.4532 108.764 14.9771C108.764 13.6165 109.749 12.5151 111.226 12.5151C112.096 12.5151 112.812 12.8822 113.151 13.4214L112.437 14.0734C112.152 13.7191 111.688 13.5369 111.3 13.5369C110.45 13.5369 109.857 14.094 109.857 14.9796C109.857 15.8653 110.463 16.4224 111.287 16.4224C111.819 16.4224 112.273 16.1965 112.602 15.7909L113.228 16.4583Z" fill="#2C2C2C"/>
<path d="M113.437 12.5918H117.547V13.5776H116.017V17.3539H114.961V13.5802H113.437V12.5918Z" fill="#2C2C2C"/>
<path d="M117.975 17.3565V12.5918H119.949C121.569 12.5918 121.969 13.4492 121.969 14.2322C121.969 15.0152 121.453 15.8573 119.949 15.8573H119.03V17.3539H117.975V17.3565ZM119.03 13.5827V14.8766H119.936C120.596 14.8766 120.876 14.6327 120.876 14.2297C120.876 13.8549 120.644 13.5827 119.977 13.5827H119.03Z" fill="#2C2C2C"/>
<path d="M124.802 12.5127C126.162 12.5127 127.251 13.5601 127.251 14.9746C127.251 16.3891 126.162 17.4365 124.802 17.4365C123.441 17.4365 122.345 16.3891 122.345 14.9746C122.345 13.5601 123.418 12.5127 124.802 12.5127ZM124.802 16.4174C125.551 16.4174 126.154 15.8603 126.154 14.9746C126.154 14.0889 125.495 13.5319 124.802 13.5319C124.108 13.5319 123.441 14.0889 123.441 14.9746C123.441 15.8603 124.08 16.4174 124.802 16.4174Z" fill="#2C2C2C"/>
<path d="M127.846 17.3565V12.5918H128.901V15.5107L131.209 12.5918H132.087V17.3539H131.032V14.4504L128.711 17.3565H127.846Z" fill="#2C2C2C"/>
<path d="M132.513 12.5918H136.623V13.5776H135.093V17.3539H134.038V13.5802H132.513V12.5918Z" fill="#2C2C2C"/>
<path d="M137.049 12.5918H140.689V13.5776H138.104V14.4633H140.52V15.4157H138.104V16.3681H140.751V17.3539H137.049V12.5918Z" fill="#2C2C2C"/>
<path d="M144.578 13.6139H143.089L143.061 14.1658C142.917 17.1181 142.306 17.3774 141.346 17.3774C141.264 17.3774 141.164 17.3697 141.074 17.3568V16.3762C141.803 16.4635 142.014 16.158 142.055 13.1313L142.063 12.5947H145.636V17.3568H144.581V13.6139H144.578Z" fill="#2C2C2C"/>
<path d="M147.556 14.1706H148.455C149.795 14.1706 150.455 14.7149 150.455 15.7494C150.455 16.784 149.685 17.3539 148.401 17.3539H146.496V12.5918H147.556V14.1706ZM147.556 15.159V16.3707H148.421C149.048 16.3707 149.361 16.1653 149.361 15.752C149.361 15.3387 149.056 15.159 148.442 15.159H147.556Z" fill="#2C2C2C"/>
<path d="M154.087 15.4516H151.972V17.3565H150.917V12.5918H151.972V14.4633H154.087V12.5918H155.143V17.3539H154.087V15.4516Z" fill="#2C2C2C"/>
<path d="M157.651 12.5918H158.434L160.523 17.3539H159.422L159.034 16.4682H157.04L156.652 17.3539H155.563L157.651 12.5918ZM157.404 15.58H158.642L158.028 14.1578L157.404 15.58Z" fill="#2C2C2C"/>
<path d="M163.999 15.7857H163.19L161.974 17.3568H160.729L162.13 15.5881C161.45 15.3776 161.07 14.9001 161.07 14.1992C161.07 13.293 161.73 12.5947 163.065 12.5947H165.059V17.3568H163.999V15.7857ZM163.999 14.7974V13.5805H162.998C162.392 13.5805 162.161 13.7987 162.161 14.1941C162.161 14.5278 162.474 14.7999 162.957 14.7999H163.999V14.7974Z" fill="#2C2C2C"/>
<path d="M89.7076 21.3818H90.7628V23.2405L92.5932 21.3818H93.9666L91.8975 23.4921L94.1027 26.1465H92.7138L91.1016 24.2006L90.7602 24.5472V26.1465H89.7051V21.3818H89.7076Z" fill="#2C2C2C"/>
<path d="M96.323 21.2998C97.6836 21.2998 98.7721 22.3472 98.7721 23.7617C98.7721 25.1762 97.6836 26.2237 96.323 26.2237C94.9624 26.2237 93.8662 25.1762 93.8662 23.7617C93.8662 22.3472 94.9393 21.2998 96.323 21.2998ZM96.323 25.2045C97.0726 25.2045 97.6759 24.6474 97.6759 23.7617C97.6759 22.8761 97.0161 22.319 96.323 22.319C95.6299 22.319 94.9624 22.8761 94.9624 23.7617C94.9624 24.6474 95.6016 25.2045 96.323 25.2045Z" fill="#2C2C2C"/>
<path d="M99.3682 26.144V21.3818H101.342C102.962 21.3818 103.363 22.2393 103.363 23.0223C103.363 23.8053 102.847 24.6473 101.342 24.6473H100.423V26.144H99.3682ZM100.423 22.3676V23.6615H101.329C101.989 23.6615 102.269 23.4176 102.269 23.0146C102.269 22.6398 102.038 22.3676 101.371 22.3676H100.423Z" fill="#2C2C2C"/>
<path d="M107.036 22.3676H104.926V26.144H103.871V21.3818H108.089V26.144H107.034V22.3676H107.036Z" fill="#2C2C2C"/>
<path d="M111.149 21.2998C112.51 21.2998 113.598 22.3472 113.598 23.7617C113.598 25.1762 112.51 26.2237 111.149 26.2237C109.789 26.2237 108.692 25.1762 108.692 23.7617C108.695 22.3883 109.768 21.2998 111.149 21.2998ZM111.149 25.2045C111.899 25.2045 112.502 24.6474 112.502 23.7617C112.502 22.8761 111.842 22.319 111.149 22.319C110.456 22.319 109.789 22.8761 109.789 23.7617C109.789 24.6474 110.428 25.2045 111.149 25.2045Z" fill="#2C2C2C"/>
<path d="M114.196 26.144V21.3818H116.17C117.79 21.3818 118.191 22.2393 118.191 23.0223C118.191 23.8053 117.675 24.6473 116.17 24.6473H115.251V26.144H114.196ZM115.249 22.3676V23.6615H116.155C116.815 23.6615 117.095 23.4176 117.095 23.0146C117.095 22.6398 116.864 22.3676 116.196 22.3676H115.249Z" fill="#2C2C2C"/>
<path d="M119.967 21.3818H120.75L122.84 26.144H121.738L121.351 25.2583H119.356L118.968 26.144H117.88L119.967 21.3818ZM119.723 24.3675H120.961L120.347 22.9452L119.723 24.3675Z" fill="#2C2C2C"/>
<path d="M123.258 21.3818H124.313V25.1582H126.238V21.3818H127.293V25.1582H127.845V26.9398H126.865V26.144H123.258V21.3818Z" fill="#2C2C2C"/>
<path d="M128.388 26.144V21.3818H129.443V24.3007L131.751 21.3818H132.629V26.144H131.574V23.2379L129.253 26.144H128.388Z" fill="#2C2C2C"/>
<path d="M136.33 24.5728H135.522L134.305 26.144H133.06L134.461 24.3752C133.781 24.1647 133.401 23.6872 133.401 22.9863C133.401 22.0801 134.061 21.3818 135.396 21.3818H137.39V26.144H136.335V24.5728H136.33ZM136.33 23.5845V22.3676H135.329C134.723 22.3676 134.492 22.5858 134.492 22.9812C134.492 23.3149 134.805 23.587 135.288 23.587H136.33V23.5845Z" fill="#2C2C2C"/>
</g>
<defs>
<clipPath id="clip0_456_3728">
<rect width="165.06" height="26.94" fill="white"/>
</clipPath>
</defs>
</svg>
