<svg width="99" height="32" viewBox="0 0 99 32" fill="none" xmlns="http://www.w3.org/2000/svg">
<path d="M85.2093 21.2402C85.2524 20.8305 85.2777 20.4167 85.2777 19.9978C85.2777 13.655 80.2302 8.51611 74.0028 8.51611C67.7772 8.51611 62.7305 13.655 62.7305 19.9978C62.7305 26.3386 67.7774 31.4755 74.0028 31.4755C78.7388 31.4755 82.7871 28.5079 84.4604 24.2917L79.6009 23.405C78.5245 25.4565 76.4876 26.8383 74.1593 26.8383C71.0687 26.8383 68.5094 24.4177 67.9946 21.2401L85.2093 21.2402ZM74.1594 13.2813C76.7984 13.2813 79.0525 15.051 79.9724 17.5562H68.3394C69.2569 15.0511 71.5158 13.2813 74.1594 13.2813Z" fill="#2C2C2C"/>
<path d="M59.7009 8.99609H53.9434V31.0623H59.7009V8.99609Z" fill="#2C2C2C"/>
<path d="M56.8236 0C55.0463 0 53.6113 1.5024 53.6113 3.3455C53.6113 5.18577 55.0463 6.68418 56.8236 6.68418C58.5937 6.68418 60.0318 5.18577 60.0318 3.3455C60.0318 1.5024 58.5937 0 56.8236 0Z" fill="#2C2C2C"/>
<path d="M18.7039 1.92236V13.8012H6.29355V1.92236H0V31.0437H6.29355V19.1643H18.7039V31.0437H25.0026V1.92236H18.7039Z" fill="#2C2C2C"/>
<path d="M44.6903 9.00718V10.1912C43.0168 9.13531 41.0558 8.52881 38.9545 8.52881C32.8509 8.52881 27.9004 13.6644 27.9004 20.0022C27.9004 26.3388 32.8509 31.4757 38.9545 31.4757C41.0012 31.4757 42.9133 30.8968 44.5573 29.894V31.0436H50.1753V9.00718H44.6903ZM39.2353 26.6382C35.6731 26.6382 32.7934 23.6699 32.7934 20.0048C32.7934 16.3367 35.6729 13.3661 39.2353 13.3661C42.7966 13.3661 45.6809 16.3367 45.6809 20.0048C45.6808 23.6699 42.7965 26.6382 39.2353 26.6382Z" fill="#2C2C2C"/>
<path d="M97.183 6.94727C91.881 7.91045 87.85 12.714 87.7881 18.5074V31.0627H93.3009L93.3038 18.2714C93.3038 15.3432 95.4147 12.9266 98.1354 12.5798L97.183 6.94727Z" fill="#2C2C2C"/>
</svg>
