<svg width="26" height="26" viewBox="0 0 26 26" fill="none" xmlns="http://www.w3.org/2000/svg">
<path d="M2.46883 19.7596L1.29883 22.0996H6.49883L5.32883 19.7596C5.19883 19.6296 5.19883 19.3696 5.19883 19.2396V11.9596C5.19883 11.6996 5.19883 11.5696 5.32883 11.4396L6.49883 9.09961H1.29883L2.46883 11.4396C2.59883 11.5696 2.59883 11.8296 2.59883 11.9596V19.1096C2.59883 19.3696 2.59883 19.6296 2.46883 19.7596Z" fill="#2C2C2C"/>
<path d="M11.5694 19.7596L10.3994 22.0996H15.5994L14.4294 19.7596C14.2994 19.6296 14.2994 19.3696 14.2994 19.2396V11.9596C14.2994 11.6996 14.2994 11.5696 14.4294 11.4396L15.5994 9.09961H10.3994L11.5694 11.4396C11.6994 11.5696 11.6994 11.8296 11.6994 11.9596V19.1096C11.6994 19.3696 11.6994 19.6296 11.5694 19.7596Z" fill="#2C2C2C"/>
<path d="M20.67 19.7596L19.5 22.0996H24.7L23.53 19.7596C23.4 19.6296 23.4 19.3696 23.4 19.2396V11.9596C23.4 11.6996 23.4 11.5696 23.53 11.4396L24.7 9.09961H19.5L20.67 11.4396C20.8 11.5696 20.8 11.8296 20.8 11.9596V19.1096C20.8 19.3696 20.8 19.6296 20.67 19.7596Z" fill="#2C2C2C"/>
<path d="M24.7 23.3994H1.3C0.52 23.3994 0 22.6194 0 23.3994V25.7394C0 25.8694 0.13 25.9994 0.26 25.9994H25.74C25.87 25.9994 26 25.8694 26 25.7394V23.3994C26 22.6194 25.48 23.3994 24.7 23.3994Z" fill="#2C2C2C"/>
<path d="M25.61 5.07L13.13 0C13 0 12.87 0 12.74 0L0.39 5.07C0.13 5.2 0 5.33 0 5.59V7.8C0 7.8 0.26 7.8 0.52 7.8H25.48C25.74 7.8 26 7.8 26 7.8V5.59C26 5.33 25.87 5.2 25.61 5.07Z" fill="#2C2C2C"/>
</svg>
