<svg width="24" height="26" viewBox="0 0 24 26" fill="none" xmlns="http://www.w3.org/2000/svg">
<path d="M23.4903 2.34918C23.7709 2.34918 24 2.34918 24 2.34918V0C24 0 23.7705 0 23.4903 0H21.3245H2.6755H0.509702C0.22949 0 0 0 0 0V2.34918C0 2.34918 0.22949 2.34918 0.509702 2.34918H2.6755V7.46277H0.932353C0.651782 7.46277 0.422651 7.46277 0.422651 7.46277V9.81194C0.422651 9.81194 0.652142 9.81194 0.932353 9.81194H2.6755V16.0485H0.932353C0.651782 16.0485 0.422651 16.0485 0.422651 16.0485V18.3977C0.422651 18.3977 0.652142 18.3977 0.932353 18.3977H2.6755V23.6508H0.509702C0.22949 23.6508 0 23.6508 0 23.6508V26H0.509702H2.6755H21.3245H23.4903C23.7709 26 24 26 24 26V23.6508C24 23.6508 23.7705 23.6508 23.4903 23.6508H21.3245V18.3977H23.0676C23.3482 18.3977 23.5773 18.3977 23.5773 18.3977V16.0485C23.5773 16.0485 23.3479 16.0485 23.0676 16.0485H21.3245V9.81194H23.0676C23.3482 9.81194 23.5773 9.81194 23.5773 9.81194V7.46277C23.5773 7.46277 23.3479 7.46277 23.0676 7.46277H21.3245V2.34918H23.4903ZM12.0002 19.3118C10.0664 19.3118 8.31642 17.9686 8.31642 15.2819C8.31642 12.2091 12.0002 8.56528 12.0002 8.56528C12.0002 8.56528 15.6839 12.2091 15.6839 15.2819C15.6836 17.9686 13.934 19.3118 12.0002 19.3118Z" fill="#2C2C2C"/>
</svg>
