<svg width="26" height="26" viewBox="0 0 26 26" fill="none" xmlns="http://www.w3.org/2000/svg">
<g clip-path="url(#clip0_120_2059)">
<path d="M17.2764 14.423C18.4162 17.3643 19.2998 20.4039 19.9184 23.5002C22.7312 21.5691 24.7193 18.4908 25.223 14.9386C23.5883 14.4349 21.8859 14.1816 20.1569 14.1816C19.182 14.1816 18.2189 14.2621 17.2764 14.423Z" fill="#2C2C2C"/>
<path d="M5.1709 22.8125C7.30334 24.5856 10.0308 25.6495 12.9997 25.6495C14.9407 25.6495 16.7816 25.1935 18.4163 24.3829C17.8007 21.0989 16.87 17.8805 15.6476 14.7812C11.3032 15.9584 7.52133 18.8073 5.1709 22.8125Z" fill="#2C2C2C"/>
<path d="M15.0111 13.2363C14.6164 12.3185 14.1982 11.4155 13.7534 10.5215C13.6562 10.5572 13.559 10.596 13.4618 10.6317C9.74475 12.0026 5.83918 12.6999 1.84818 12.6999C1.45055 12.6999 1.05292 12.691 0.658231 12.676C0.652364 12.834 0.649414 12.9949 0.649414 13.1529C0.649414 16.4309 1.90119 19.4169 3.94824 21.646C6.49304 17.4977 10.4634 14.5237 15.0111 13.2363Z" fill="#2C2C2C"/>
<path d="M12.9788 9.03193C11.5856 6.44527 9.97747 3.97484 8.17194 1.65039C4.37535 3.28941 1.54778 6.79691 0.829102 11.0226C1.16783 11.0345 1.50655 11.0405 1.84821 11.0405C5.66542 11.0405 9.43552 10.3491 12.9788 9.03193Z" fill="#2C2C2C"/>
<path d="M21.6058 4.1985C19.3791 2.00816 16.3424 0.658203 12.9994 0.658203C11.8949 0.658203 10.8257 0.804226 9.80957 1.08137C11.5709 3.39686 13.1467 5.84942 14.5163 8.41226C17.0375 7.32455 19.4233 5.91201 21.6058 4.1985Z" fill="#2C2C2C"/>
<path d="M22.7046 5.43359C20.419 7.24247 17.9331 8.73847 15.2822 9.89471C15.5591 10.452 15.8271 11.0152 16.0834 11.5814C16.2748 12.0016 16.4604 12.4248 16.64 12.8509C17.7887 12.6334 18.964 12.5201 20.1568 12.5201C21.9241 12.5201 23.6677 12.7645 25.3495 13.2443V13.1519C25.3495 10.2404 24.3629 7.55836 22.7046 5.43359Z" fill="#2C2C2C"/>
</g>
<defs>
<clipPath id="clip0_120_2059">
<rect width="26" height="26" fill="white"/>
</clipPath>
</defs>
</svg>
