<svg width="24" height="24" viewBox="0 0 24 24" fill="none" xmlns="http://www.w3.org/2000/svg">
<path fill-rule="evenodd" clip-rule="evenodd" d="M23.5392 5.42745L18.1118 0L15.9905 2.12132L17.9966 4.12749L16.137 5.98715L10.6925 0.542724L9.27832 1.95694L11.0957 3.77429L8.93237 5.93759L12.8165 9.8217L11.4023 11.2359L7.51816 7.35181L5.50891 9.36106L9.39265 13.2448L7.97844 14.659L4.0947 10.7753L2.67904 12.1909L2.38615 12.4838V19.7388L0 22.1249L1.41421 23.5391L3.80091 21.1525H11.0548L11.3477 20.8596L19.7643 12.4429L21.582 14.2606L22.9962 12.8464L17.5512 7.40137L19.4108 5.5417L21.4179 7.54877L23.5392 5.42745Z" fill="#2C2C2C"/>
</svg>
