<svg width="116" height="28" viewBox="0 0 116 28" fill="none" xmlns="http://www.w3.org/2000/svg">
<mask id="mask0_120_2117" style="mask-type:luminance" maskUnits="userSpaceOnUse" x="4" y="1" width="108" height="26">
<path d="M4.83301 26.8335H111.166V1.16695H4.83301V26.8335Z" fill="white"/>
</mask>
<g mask="url(#mask0_120_2117)">
<path fill-rule="evenodd" clip-rule="evenodd" d="M82.2094 12.2578L79.7941 19.5659H84.6429L82.2094 12.2578ZM111.166 22.4816V22.4183H102.382L111.166 1.17124V1.16673H93.358V5.56836H100.631L93.4558 22.3844L86.3918 1.16673H80.5059L73.8377 20.9887V1.16673H64.7336L59.8712 15.5279L55.4772 1.16673H45.9411V20.9887L39.241 1.16673H33.3642L26.5253 21.5669L21.2785 8.62398L28.9179 1.16673H21.5309L12.718 10.0016V1.16673H4.83301V26.8335H12.718V16.7091L14.9104 14.5975L19.7456 26.8335H30.1688L31.1217 23.9698H38.9271L39.8755 26.8335H50.7944V12.863L55.3203 26.829H61.6497L65.9981 12.863V26.8335H77.3606L78.3112 23.9698H86.1053L87.0605 26.8335L111.038 26.7725L111.166 22.4816ZM35.0198 12.2578L32.5841 19.5659H37.4624L35.0198 12.2578Z" fill="#2C2C2C"/>
</g>
</svg>
