<svg width="105" height="36" viewBox="0 0 105 36" fill="none" xmlns="http://www.w3.org/2000/svg">
<g clip-path="url(#clip0_120_2076)">
<path d="M0.898488 2.63711C2.67172 2.53506 4.62436 2.66297 6.40928 2.60761C7.21968 2.58247 9.06022 2.50103 9.65654 3.01585C10.081 3.75743 9.94711 6.22409 9.94454 7.18252L9.94985 12.629L10.6114 11.9642L15.9812 6.6392C16.8879 5.73726 18.9531 3.55009 19.9315 2.91018C20.6041 2.47034 25.5537 2.62265 26.5662 2.62212L37.1256 2.61537C36.6337 5.11972 35.9454 7.05708 34.14 8.9612C32.4064 10.8016 30.0475 11.9243 27.5283 12.1073C24.7317 12.3228 24.2526 11.464 22.0299 13.7835C20.2808 15.6087 18.3568 17.3935 16.606 19.2425C17.0474 19.5876 18.0087 20.5922 18.4217 21.011L21.5985 24.2354C22.33 24.9773 23.464 26.2894 24.4545 26.3395C25.6714 26.4035 30.7557 27.1924 29.1511 24.4838C28.756 23.8167 25.7043 24.1166 24.7988 24.0039C24.15 23.4961 23.3645 22.6816 22.7635 22.0871C21.8135 21.1428 20.8577 20.204 19.8967 19.2708C20.6273 18.6419 21.3877 17.838 22.0741 17.1473C24.717 14.5204 24.1663 14.4554 27.9618 14.4667C41.7434 14.4994 42.9793 33.8414 29.4396 35.8742C28.8773 35.9349 28.3022 35.9468 27.7377 35.9415C25.6071 35.9197 23.4651 35.9692 21.3355 35.9451C20.5469 35.9219 19.9299 35.8704 19.3521 35.2919C17.5716 33.5088 15.787 31.7337 14.0098 29.9484C12.6579 28.5903 11.2658 27.2597 9.94667 25.8718C9.93645 27.4256 10.1471 34.2376 9.79785 35.2564C9.71009 35.5126 9.55712 35.671 9.31363 35.7892C9.09979 35.8933 8.84856 35.944 8.6127 35.9615C7.73302 36.0271 6.79766 35.9501 5.90995 35.9534C4.45406 35.959 2.95511 36.0365 1.50426 35.9521C1.21882 35.9354 0.928303 35.8972 0.659089 35.7967C0.398744 35.6992 0.241189 35.5533 0.128507 35.2991C-0.0162821 34.9723 -0.012276 34.5951 -0.0175813 34.2437C-0.0987905 28.8379 -0.00169327 23.4202 -0.0039038 18.0127C-0.00578275 13.4742 -0.124571 8.90747 -0.015509 4.372C-0.00733006 4.03152 -0.0255113 3.60678 0.105214 3.29125C0.256137 2.92702 0.558924 2.7839 0.898488 2.63711Z" fill="#2C2C2C"/>
<path d="M86.0081 14.5634C88.9492 14.1782 91.4982 15.5337 91.7532 18.6856C91.8715 20.1436 91.8637 21.5587 91.856 23.022C91.8519 23.7691 91.8607 24.5348 91.8571 25.2836C91.5604 29.2746 93.2603 35.3442 87.5798 36.0075C86.2551 36.1902 84.3068 35.9557 83.2477 35.118C81.3527 33.6193 81.5923 30.896 81.5873 28.7443C81.5829 26.9537 81.5738 25.1972 81.5862 23.4249C81.613 19.6441 80.9675 15.156 86.0081 14.5634Z" fill="#2C2C2C"/>
<path d="M86.3779 17.602C87.9292 17.482 88.5059 18.3377 88.5291 19.8326C88.586 23.5021 88.5821 27.1896 88.5235 30.8588C88.5072 31.8829 88.1378 32.607 87.166 32.9701C86.7648 33.0202 86.3014 33.0257 85.9237 32.8635C85.5589 32.7067 85.1931 32.3251 85.0574 31.9513C84.7286 31.0468 84.801 21.3435 84.9044 19.9192C84.9375 19.4615 84.9745 18.9844 85.1812 18.5676C85.439 18.047 85.8433 17.785 86.3779 17.602Z" fill="#D9D9D9"/>
<path d="M44.3821 14.6938C45.4628 14.7495 46.8063 14.7168 47.9068 14.7174L53.6014 14.7069C53.5815 15.7193 53.6006 16.7976 53.6011 17.8156L47.5996 17.8006C47.6327 19.3999 47.6443 21.2619 47.5996 22.8548C47.8875 22.8523 48.1754 22.8514 48.4633 22.852C53.631 22.8639 54.692 25.1638 54.6371 29.8953C54.5301 32.1826 53.9203 34.4988 51.584 35.434C50.2348 35.974 48.8778 35.8765 47.46 35.8765L44.3849 35.8771C44.3031 33.6257 44.3747 30.9166 44.3747 28.6364L44.3821 14.6938Z" fill="#2C2C2C"/>
<path d="M47.6035 25.9523C48.4689 25.9498 49.8425 25.8673 50.5247 26.4015C51.9157 27.4903 51.7253 30.7987 50.7706 32.0715C49.9575 32.8355 48.6461 32.7951 47.6043 32.7998C47.6961 30.7766 47.6234 28.0215 47.6035 25.9523Z" fill="#D9D9D9"/>
<path d="M101.88 14.6904C102.851 14.727 104.019 14.7278 104.995 14.7076L104.999 35.8714C103.987 35.8731 102.891 35.8529 101.887 35.8786L101.879 26.6402C100.614 26.6388 99.3132 26.6222 98.0519 26.6466C98.0579 29.7082 98.0378 32.8128 98.0814 35.8709L94.8339 35.8728C94.8206 28.8548 94.9146 21.7057 94.8242 14.7046C95.8789 14.7079 97.0312 14.7347 98.0781 14.7087C98.0342 17.5594 98.0242 20.7246 98.0767 23.5741C99.308 23.5708 100.665 23.5389 101.885 23.5708C101.883 23.007 101.866 22.3792 101.881 21.8212L101.875 18.8199L101.88 14.6904Z" fill="#2C2C2C"/>
<path d="M101.875 18.8213L101.977 18.7632C102.06 19.2957 102.08 21.3494 101.881 21.8226L101.875 18.8213Z" fill="#2C2C2C"/>
<path d="M68.4574 14.6904C69.3024 14.7547 70.7997 14.7151 71.7005 14.7234L71.6989 23.6716C74.9356 23.7065 74.9646 21.7924 75.5794 19.132C75.9157 17.6765 76.1898 16.1842 76.5018 14.7223C77.3904 14.7757 78.6482 14.743 79.5642 14.745C79.058 16.7696 78.7283 18.9758 78.2296 21.0206C77.7933 22.8084 77.2708 23.9477 75.6496 24.9446C77.9856 26.0498 78.2437 27.9661 78.7156 30.2687L79.2901 33.0701C79.4791 34.0064 79.6769 34.9407 79.8831 35.8734L76.591 35.8742C76.4098 34.663 76.1323 33.275 75.8574 32.0239C75.4999 30.3967 75.2874 27.2727 73.3993 26.7518C72.9986 26.641 72.1448 26.6181 71.6997 26.5865L71.698 35.8742C70.6273 35.8612 69.5314 35.8748 68.4588 35.8762C68.3659 28.8999 68.4405 21.683 68.4574 14.6904Z" fill="#2C2C2C"/>
<path d="M56.9204 14.7007C57.843 14.7511 59.1111 14.717 60.053 14.7181L66.2922 14.7082C66.2337 15.586 66.2889 16.9072 66.3019 17.8089C64.2585 17.7986 62.2149 17.8006 60.1713 17.815L60.1776 23.5755L65.4873 23.5559L65.4906 26.7072C63.7968 26.6773 61.8538 26.6568 60.1716 26.7114L60.1721 30.2895L60.1782 32.8037C62.1975 32.7743 64.2649 32.7954 66.2881 32.7968C66.2577 33.8003 66.2809 34.8687 66.3019 35.8726L56.9243 35.8756C56.8403 28.8811 56.9116 21.7088 56.9204 14.7007Z" fill="#2C2C2C"/>
<path d="M67.9977 2.55176C68.4298 2.58244 69.0388 2.56884 69.4854 2.57026L69.4834 12.1206L67.9211 12.1322C67.9043 11.3693 67.9164 10.5638 67.9151 9.79723L67.9173 6.42735C67.3989 7.77929 66.8391 9.11461 66.2378 10.4314C65.8822 10.4148 65.5081 10.4198 65.1508 10.4186C64.5799 9.10354 64.0245 7.78178 63.4849 6.45366C63.4371 8.2628 63.481 10.2893 63.4819 12.1148L61.9198 12.1256C61.8704 8.98584 61.924 5.73227 61.9107 2.57876L63.4263 2.56812C64.0046 4.09189 65.2804 6.61787 65.6554 8.09664C65.9074 7.61507 66.3025 6.5924 66.5161 6.07012C66.988 4.88821 67.4821 3.71519 67.9977 2.55176Z" fill="#2C2C2C"/>
<path d="M94.2742 2.55176C94.7197 2.58203 95.2488 2.57023 95.7008 2.57159L95.6945 12.0433C95.5002 12.1779 94.4555 12.1344 94.1493 12.1344C94.1366 10.0547 94.1405 7.97499 94.1607 5.8953C93.1057 7.71828 91.92 10.2056 90.941 12.1225C90.4506 12.1233 89.9601 12.1302 89.4696 12.1432C89.3848 9.10318 89.4528 5.62835 89.4661 2.56516L91.0035 2.57128C91.0209 4.74912 91.0074 6.92712 90.9637 9.10429C92.0098 7.27742 93.29 4.50282 94.2742 2.55176Z" fill="#2C2C2C"/>
<path d="M103.634 2.55518C104.05 2.585 104.568 2.567 104.992 2.56373L104.997 12.0318C104.781 12.1708 103.845 12.1262 103.513 12.129C103.509 10.1326 103.461 7.88512 103.545 5.9137C103.18 6.42767 102.656 7.52539 102.359 8.10915C101.686 9.45638 100.996 10.7956 100.289 12.1256C99.8057 12.1245 99.3222 12.129 98.8389 12.1387C98.8057 8.97093 98.8303 5.72816 98.8428 2.55919C99.2816 2.58835 99.9138 2.57041 100.369 2.56958C100.38 4.67375 100.416 6.99675 100.337 9.08585C100.727 8.42871 101.196 7.42016 101.548 6.71761L103.634 2.55518Z" fill="#2C2C2C"/>
<path d="M55.2457 2.5415C55.6928 2.58349 56.2789 2.56662 56.7376 2.56662L59.5035 12.1181H57.8293C57.7113 11.5953 57.5604 10.6452 57.2905 10.1877C57.2156 10.0614 57.0067 10.0841 56.8359 10.0717L54.6821 10.0479L54.1153 12.1278C53.5953 12.1107 53.0106 12.1264 52.4854 12.1298C53.3494 8.94737 54.3463 5.72482 55.2457 2.5415Z" fill="#2C2C2C"/>
<path d="M55.9244 4.83252C56.175 5.07732 56.8036 8.08027 56.9509 8.66098L56.0495 8.67538L55.0078 8.66292C55.3648 7.48461 55.6696 6.03575 55.9244 4.83252Z" fill="#D9D9D9"/>
<path d="M44.5671 2.57561L46.1341 2.56836C46.1277 3.9172 46.1318 5.26606 46.1465 6.61495C47.4659 6.5676 48.0909 6.41806 48.4711 4.97917C48.6811 4.18443 48.8823 3.37332 49.1 2.58018C49.6134 2.61624 50.05 2.60898 50.5637 2.60184C50.223 4.14026 49.9176 6.29566 48.6499 7.17877C48.6869 7.19899 48.7234 7.22003 48.7596 7.24135C49.8925 7.91898 50.068 9.42323 50.373 10.6669L50.7259 12.1135L49.1285 12.1199C49.0315 11.7247 48.9486 11.3149 48.8469 10.9206C48.3219 8.88019 48.4988 7.95692 46.1316 7.96052L46.1404 12.1133L44.5635 12.1271L44.5671 2.57561Z" fill="#2C2C2C"/>
<path d="M80.7975 2.57256L82.3435 2.56494C82.3463 3.79772 82.2943 5.41778 82.3761 6.60522C83.7925 6.56673 84.3137 6.38673 84.7157 4.89218C84.9215 4.12687 85.1158 3.33631 85.3139 2.56746C85.8663 2.61767 86.2426 2.61183 86.7969 2.6005C86.4092 4.18724 86.1655 6.23415 84.8815 7.19368C84.9395 7.22525 84.9967 7.25793 85.0531 7.29199C86.1313 7.94359 86.3297 9.58408 86.6187 10.7837L86.9555 12.119C86.4377 12.1082 85.8759 12.1218 85.3545 12.1243C85.2473 11.7059 85.1589 11.2697 85.0525 10.8507C84.5342 8.80814 84.6812 7.96298 82.346 7.96048L82.3477 12.121L80.7939 12.1254L80.7975 2.57256Z" fill="#2C2C2C"/>
<path d="M75.1737 2.51758C76.734 2.52954 77.6003 3.12595 78.1429 4.60693L76.6602 5.10379C76.4339 4.54067 76.0222 3.99754 75.3643 3.99862C73.3002 4.0285 74.0579 7.14195 73.9231 8.52213C73.8418 9.35041 74.1715 10.894 75.3687 10.7179C76.1836 10.5977 76.2389 10.2111 76.6812 9.67025L76.8302 9.68825C77.2654 9.82339 77.7152 9.97958 78.1496 10.1239C77.7185 11.2122 77.1195 11.9834 75.9053 12.1509C73.3961 12.4974 72.277 10.9483 72.3754 8.58637C72.4312 7.33413 72.2538 5.95616 72.4796 4.72551C72.7523 3.23838 73.7957 2.65488 75.1737 2.51758Z" fill="#2C2C2C"/>
<path d="M99.8984 0.00911143L101.032 0.00348939C101.719 1.10778 102.211 1.23308 102.938 0.00265908C103.298 -0.007504 103.697 0.0139287 104.059 0.0255318L103.768 0.870285C102.616 2.71166 100.317 2.23159 99.8984 0.00911143Z" fill="#2C2C2C"/>
</g>
<defs>
<clipPath id="clip0_120_2076">
<rect width="105" height="36" fill="white"/>
</clipPath>
</defs>
</svg>
