<svg width="89" height="94" viewBox="0 0 89 94" fill="none" xmlns="http://www.w3.org/2000/svg">
<path d="M55.3316 0H32.8426L43.8353 18.0336H21.597L0 53.2561H22.8796L43.9618 18.2431L65.3059 53.2561H22.9767L10.4011 72.7471L76.2963 72.7561L88.1855 53.2561L55.3316 0Z" fill="#2C2C2C"/>
<path d="M0 94L4.25487 82.3848H6.61875L10.8411 94H8.73818L7.69496 91.1794H3.06518L2.03796 94H0ZM3.61904 89.5035H7.15661L5.37958 84.5419L3.61904 89.5035Z" fill="#2C2C2C"/>
<path d="M11.9824 82.3848H14.5422L18.1288 91.4281L21.6174 82.3848H24.1117V94H22.2207V85.5707L18.8786 94H17.232L13.8899 85.5707V94H11.9824V82.3848Z" fill="#2C2C2C"/>
<path d="M26.1807 94V82.3848H35.2288V94H33.2563V84.1436H28.1536V94H26.1807Z" fill="#2C2C2C"/>
<path d="M47.0177 94H44.9473L41.6867 84.7246L38.41 94H36.3721L40.4965 82.3848H42.8928L47.0177 94Z" fill="#2C2C2C"/>
<path d="M48.1729 94V82.3848H50.1293V90.7311L55.6069 82.3848H57.4004V94H55.4604V85.6536L49.9829 94H48.1729Z" fill="#2C2C2C"/>
<path d="M58.7715 82.3848H67.7056V84.1436H64.2165V94H62.2601V84.1436H58.7715V82.3848Z" fill="#2C2C2C"/>
<path d="M69.0576 82.3848H76.5406V84.1436H71.0306V87.2629H75.5629V88.9718H71.0306V92.2407H76.7526V93.9995H69.0576V82.3848Z" fill="#2C2C2C"/>
<path d="M78.2676 94V82.3848H80.2401V87.2298H82.0986L85.5057 82.3848H87.7391L83.7611 87.9767L88 94H85.6361L82.1146 88.9891H80.2396V94H78.2676Z" fill="#2C2C2C"/>
</svg>
