<svg width="127" height="24" viewBox="0 0 127 24" fill="none" xmlns="http://www.w3.org/2000/svg">
<path d="M17.1835 0H10.1995L13.6133 5.94873H6.70707L0 17.5676H7.1054L13.6526 6.01783L20.2811 17.5676H7.13556L3.23011 23.997L23.6943 24L27.3865 17.5676L17.1835 0Z" fill="#2C2C2C"/>
<path d="M39 17.8076L43.2549 6.19238H45.6187L49.8411 17.8076H47.7382L46.695 14.987H42.0652L41.038 17.8076H39ZM42.619 13.3111H46.1566L44.3796 8.34957L42.619 13.3111Z" fill="#2C2C2C"/>
<path d="M50.9824 6.19238H53.5422L57.1288 15.2358L60.6174 6.19238H63.1117V17.8076H61.2207V9.3783L57.8786 17.8076H56.232L52.8899 9.3783V17.8076H50.9824V6.19238Z" fill="#2C2C2C"/>
<path d="M65.1807 17.8076V6.19238H74.2288V17.8076H72.2563V7.9512H67.1536V17.8076H65.1807Z" fill="#2C2C2C"/>
<path d="M86.0177 17.8076H83.9473L80.6867 8.53221L77.41 17.8076H75.3721L79.4965 6.19238H81.8928L86.0177 17.8076Z" fill="#2C2C2C"/>
<path d="M87.1729 17.8076V6.19238H89.1293V14.5388L94.6069 6.19238H96.4004V17.8076H94.4604V9.46123L88.9829 17.8076H87.1729Z" fill="#2C2C2C"/>
<path d="M97.7715 6.19238H106.706V7.9512H103.217V17.8076H101.26V7.9512H97.7715V6.19238Z" fill="#2C2C2C"/>
<path d="M108.058 6.19238H115.541V7.9512H110.031V11.0705H114.563V12.7794H110.031V16.0483H115.753V17.8071H108.058V6.19238Z" fill="#2C2C2C"/>
<path d="M117.268 17.8076V6.19238H119.24V11.0374H121.099L124.506 6.19238H126.739L122.761 11.7843L127 17.8076H124.636L121.115 12.7967H119.24V17.8076H117.268Z" fill="#2C2C2C"/>
</svg>
