<svg width="74" height="66" viewBox="0 0 74 66" fill="none" xmlns="http://www.w3.org/2000/svg">
<path d="M53.9958 64.2187C71.9182 58.3231 78.7279 39.567 69.2054 22.3269C59.683 5.08642 37.4342 -4.11196 19.5127 1.78351C1.59008 7.67874 -5.21897 26.435 4.30348 43.6757C13.826 60.9156 36.0743 70.1128 53.9958 64.2187Z" fill="white"/>
<path d="M53.9958 64.2187C71.9182 58.3231 78.7279 39.567 69.2054 22.3269C59.683 5.08642 37.4342 -4.11196 19.5127 1.78351C1.59008 7.67874 -5.21897 26.435 4.30348 43.6757C13.826 60.9156 36.0743 70.1128 53.9958 64.2187Z" fill="white"/>
<path d="M40.6729 38.946C40.0992 40.8983 38.7328 42.7292 36.8261 44.101C34.9193 45.472 32.6919 46.2274 30.5528 46.2274H22.624H22.1674H21.9257L21.9959 45.9891L22.1144 45.5867L23.8286 39.7505L23.8983 39.5131L23.9367 39.382H24.0698H24.3383H27.5446H29.4702C29.4702 39.382 29.5778 39.3874 29.569 39.3874C30.8373 39.3874 31.8692 38.4554 31.8692 37.3107C31.8692 36.862 31.713 36.4344 31.4176 36.0746C31.419 36.0764 31.257 35.8844 31.2542 35.8804L27.1286 30.6905C27.1286 30.6905 26.9921 30.5197 26.9921 30.5188L26.998 30.5157C25.9625 29.105 25.6989 27.287 26.2624 25.3678C26.8361 23.4158 28.2018 21.5851 30.1092 20.2136C32.0158 18.8421 34.2436 18.0867 36.3825 18.0867H44.298H44.7547H44.9958L44.9263 18.325L44.8078 18.7278L43.0934 24.5639L43.0239 24.8011L42.9855 24.9322H42.8523H42.5829H37.3749V24.937C36.1064 24.937 35.0748 25.8687 35.0748 27.0134C35.0748 27.4628 35.2308 27.8899 35.5279 28.2502C35.5279 28.2502 35.9011 28.7105 35.9024 28.712L39.8067 33.623C39.8067 33.623 39.9306 33.778 39.9298 33.7786L39.9249 33.7821C40.9702 35.1955 41.2382 37.0199 40.6729 38.946ZM67.205 22.9841C66.4148 21.5536 65.53 20.1832 64.5633 18.8748L62.8921 24.564L62.8231 24.8012L62.7837 24.9323H62.6519H62.3824H57.1741V24.9371C55.9051 24.9371 54.8735 25.8687 54.8735 27.0135C54.8735 27.4629 55.0301 27.8899 55.3264 28.2502C55.3264 28.2502 55.7002 28.7105 55.7018 28.712C55.7018 28.712 59.6052 33.6234 59.6065 33.625L59.7339 33.7875L59.7293 33.7896C60.7705 35.2015 61.0362 37.0231 60.4716 38.9462C59.8979 40.8984 58.5321 42.7294 56.6244 44.1011C54.7186 45.4721 52.4902 46.2276 50.3514 46.2276H42.4234H41.9658H41.725L41.7947 45.9893L41.9129 45.5868L43.627 39.7506L43.6968 39.5132L43.7352 39.3821H43.8682H44.1378H47.3431H49.2695C49.2695 39.3821 49.3763 39.3875 49.3681 39.3875C50.6368 39.3875 51.6676 38.4555 51.6676 37.3108C51.6676 36.8621 51.5116 36.4345 51.2159 36.0747C51.2176 36.0765 51.0562 35.8845 51.0534 35.8806L46.928 30.6906L46.7964 30.5261L46.8016 30.5221C45.7619 29.1106 45.4969 27.2901 46.0616 25.368C46.6354 23.416 48.001 21.5853 49.9076 20.2138C51.8137 18.8423 54.0425 18.0869 56.1818 18.0869H63.9668C55.7702 7.56621 42.1829 1.39128 29.3178 2.08855L27.3081 8.93044L27.2382 9.16739L27.1998 9.29923H27.067H26.7975H19.9607H18.7954H18.5536L18.6234 9.06007L18.7417 8.65789L20.1541 3.85065C3.65181 9.53629 -2.55913 26.9747 6.30109 43.0176C6.76737 43.8611 7.26757 44.684 7.7969 45.4855L15.7416 18.439L15.8112 18.2021L15.8498 18.071H15.9826H16.9606H23.7974H24.2547H24.4959L24.4254 18.3095L24.3071 18.7118L16.3224 45.895L16.2528 46.1319L16.2142 46.2627H16.0813H15.8121H8.97532H8.32396C18.1087 60.3208 37.2785 67.4441 52.9326 62.2949C69.7512 56.7631 76.1406 39.1626 67.205 22.9841Z" fill="#212121"/>
</svg>
