<svg width="127" height="40" viewBox="0 0 127 40" fill="none" xmlns="http://www.w3.org/2000/svg">
<path d="M47.6406 22.3802L54.1694 1.77074H46.528L42.6729 13.9804L42.6248 13.5243L42.6027 13.0668L42.5351 12.6371L42.4845 12.181L42.3882 11.7473L42.2934 11.3135L42.1764 10.8838L42.0581 10.4541L41.9139 10.019L41.7774 9.61169L41.5863 9.18194L41.4212 8.77592L41.2055 8.38835L40.9936 7.98101L40.7545 7.56972L40.5205 7.18743L40.0214 6.4914L39.4833 5.84282L38.9114 5.24828L38.2745 4.66693L37.6363 4.13832L36.95 3.65847L36.2169 3.22873L35.4566 2.82798L34.6754 2.46283L33.8734 2.14909L33.0455 1.88148L32.198 1.65079L31.296 1.47941L30.3978 1.31463L29.4763 1.21577L28.5535 1.17098L27.5812 1.14062L26.6129 1.17098L25.6394 1.23821L24.6489 1.35554L23.6559 1.50186L22.6642 1.69828L21.6477 1.93424L20.6547 2.22163L19.637 2.55778L18.6206 2.91371L17.6236 3.35004L16.6072 3.80484L15.6103 4.30973L14.6212 4.86208L13.6489 5.43815L12.6819 6.0841L11.7344 6.75376L10.8336 7.45112L9.96277 8.16956L9.13221 8.91833L8.32765 9.67896L7.57118 10.4778L6.83941 11.2912L6.17652 12.1309L5.53573 12.9706L4.92094 13.813L4.37893 14.6975L3.86032 15.5676L3.38591 16.4508L2.96218 17.3617L2.55796 18.2529L2.22391 19.1624L1.92106 20.0483L1.6572 20.9592L1.47003 21.8701L1.30627 22.7599L1.19059 23.6708L1.136 24.5607L1.11523 25.4241L1.136 26.2915L1.23738 27.1523L1.37386 27.9868L1.53893 28.8318L1.77418 29.6438L2.08483 30.4124L2.41627 31.2073L2.81661 31.9534L3.26503 32.6718L3.74075 33.3442L4.25546 33.9664L4.80526 34.5622L5.39536 35.1133L6.01145 35.6208L6.64964 36.1046L7.33462 36.5356L8.0443 36.939L8.78127 37.2976L9.53515 37.6113L10.3371 37.8987L11.143 38.1399L11.967 38.3298L12.8236 38.4998L13.6723 38.6448L14.5731 38.72L15.4725 38.7662H16.372L17.2922 38.7385L18.2449 38.6673L19.1873 38.5737L20.1335 38.4049L21.0784 38.2388L22.0507 37.9976L23.019 37.7287L23.9652 37.4189L24.9349 37.084L25.9058 36.6754L26.8482 36.2733L27.7944 35.7895L28.7406 35.2886L29.6895 34.7349V33.2005L28.8836 33.6315L28.0998 34.0151L27.2966 34.375L26.4907 34.7059L25.6667 34.9933L24.866 35.2609L24.0614 35.5021L23.2543 35.6959L22.4497 35.8607L21.6477 35.9859L20.8653 36.1046L20.0594 36.1507L19.2822 36.1982H18.5244L17.7419 36.1758L17.0102 36.1046L16.255 36.0044L15.5427 35.8871L14.8343 35.7407L14.148 35.5522L13.4644 35.3097L12.7989 35.0724L12.1646 34.7784L11.5485 34.4686L10.9532 34.114L10.3891 33.7502L9.81849 33.3442L9.30119 32.8854L8.80077 32.4069L8.34975 31.9033L7.90392 31.3747L7.50099 30.7986L7.09807 30.1724L6.76662 29.5094L6.46117 28.8318L6.19992 28.1344L5.98935 27.416L5.82299 26.691L5.7008 25.9527L5.63451 25.2092L5.58772 24.4381V23.6708L5.63451 22.9076L5.7242 22.1114L5.86978 21.3455L6.03485 20.5506L6.24801 19.7583L6.48847 18.9647L6.79261 18.2028L7.09807 17.4118L7.4776 16.638L7.88053 15.8734L8.30426 15.1062L8.80077 14.3574L9.30119 13.6192L9.84449 12.9008L10.4359 12.181L11.052 11.4823L11.7097 10.785L12.3946 10.114L13.1043 9.46936L13.8608 8.84714L14.6446 8.24602L15.4491 7.66995L16.2745 7.1176L17.1258 6.61403L17.9798 6.13155L18.8558 5.69916L19.7085 5.31688L20.5754 4.95436L21.4567 4.64984L22.3314 4.35587L23.2075 4.11726L24.0848 3.89975L24.9349 3.75738L25.8096 3.61765L26.661 3.52007L27.511 3.47133H28.3416L29.1669 3.4911L29.9715 3.53984L30.7748 3.63742L31.5585 3.78111L32.3098 3.94853L33.0689 4.17L33.7786 4.40596L34.4921 4.69466L35.1758 5.00445L35.84 5.3696L36.4548 5.74794L37.0449 6.18033L37.6363 6.66149L38.1562 7.16374L38.6787 7.6884L39.1531 8.26712L39.5729 8.8946L39.9291 9.44563L40.2358 9.99666L40.501 10.549L40.7323 11.1488L40.9234 11.7236L41.0859 12.322L41.2055 12.9495L41.3225 13.5717L41.3953 14.2164L41.4213 14.8689L41.446 15.5399L41.4213 16.2122L41.3732 16.9082L41.3004 17.6003L41.2056 18.2964L41.086 19.0161L40.9235 19.7873L40.7078 20.5506L40.4725 21.298L40.2112 22.0151L39.9292 22.7151L39.5951 23.4072L39.2429 24.0808L38.8634 24.7571L38.4409 25.3991L37.9899 26.0503L37.5181 26.6725L36.9969 27.2947L36.4276 27.8919L35.8401 28.4956L35.2214 29.073L34.5585 29.6438L34.8679 29.719L35.1759 29.7691L35.4879 29.8113L35.8128 29.8627L36.1702 29.9141L36.5251 29.9603H36.8799H37.2322H37.7534L38.2486 29.9353L38.7698 29.8866L39.2663 29.7877L39.6224 29.7192L39.9994 29.644L40.3555 29.5518L40.7078 29.4305L41.0431 29.3119L41.3953 29.1642L41.7255 29.0245L42.0582 28.8531L42.3884 28.687L42.6977 28.5196L43.0032 28.3271L43.3125 28.1136L43.6205 27.9185L43.9013 27.6997L44.1885 27.465L44.4732 27.2238L44.7293 26.9825L44.9931 26.7215L45.2505 26.4552L45.4922 26.1929L45.7249 25.9042L45.9614 25.6155L46.172 25.3281L46.3618 25.0183L46.5801 24.7046L46.7426 24.3895L46.9285 24.0811L47.0961 23.7462L47.2404 23.4074L47.3795 23.0752L47.5212 22.7153L47.6406 22.3802Z" fill="#808080"/>
<path d="M58.0452 1.71484L49.2031 29.96H56.8418L60.2937 18.8701L60.3413 18.8006V18.7523L60.507 18.2232L60.6517 17.893L60.8382 17.557L61.0248 17.2423L61.2419 16.9295L61.4532 16.6379L61.7103 16.3772L61.9959 16.1339L62.2815 15.9002L62.5671 15.6839L62.8964 15.4889L63.2258 15.3479L63.559 15.2012L63.9112 15.0815L64.2901 14.9868L64.6728 14.9192L65.0517 14.8941L65.2364 14.9192L65.404 14.9617L65.5677 15.0081L65.7334 15.0815L65.88 15.1741L66.0151 15.2726L66.1617 15.3672L66.2741 15.4889L66.3921 15.6337L66.493 15.7534L66.5825 15.9214L66.6568 16.0662L66.7063 16.2323L66.752 16.4003L66.7768 16.5683V16.7382L66.752 17.0761L66.6797 17.3871L62.6604 29.96H70.3544L74.8877 15.6337L74.962 15.4193L75.0305 15.2011L75.0743 14.9617L75.1009 14.7203L75.1694 14.4538L75.2228 14.168L75.2399 13.861L75.2665 13.5713L75.2399 13.1156L75.1694 12.658L75.0743 12.2544L74.9353 11.8431L74.7468 11.4588L74.5336 11.0996L74.2765 10.7404L73.9871 10.4334L73.7034 10.138L73.3741 9.87727L73.0218 9.65714L72.6429 9.44472L72.2412 9.30183L71.8375 9.18211L71.413 9.08364L70.9617 9.03539H70.7485L70.5618 8.98714H70.4685H70.3962H70.3543H70.2952L69.7088 9.01027L69.1395 9.05852L68.5988 9.13L68.0276 9.23043L67.4888 9.34628L66.9614 9.51622L66.4454 9.67842L65.9275 9.89856L65.4268 10.138L64.9489 10.3794L64.4786 10.6652L64.0331 10.9568L63.5818 11.2908L63.1801 11.6288L62.7822 12.0111L62.3976 12.3935L65.6895 1.71485L58.0452 1.71484ZM25.0989 8.84806L24.6 8.86348L24.0841 8.89245L23.5852 8.93684L23.0883 9.00833L22.5914 9.05855L22.0963 9.15896L21.647 9.2516L21.1919 9.34622L20.7483 9.49105L20.3199 9.63588L19.9182 9.78264L19.5146 9.94871L19.1147 10.1128L18.7339 10.3311L18.355 10.5261L18.0047 10.7404L17.6487 10.9818L17.2926 11.2174L16.9613 11.4588L16.6567 11.7214L16.3254 11.9898L16.036 12.2756L15.7333 12.5363L15.4496 12.8279L15.1906 13.1368L14.9012 13.4748L14.6213 13.832L14.3377 14.2163L14.054 14.6508L13.7684 15.1065L21.0073 15.9001L21.3119 15.4695L21.6184 15.0814L21.9535 14.7705L22.2601 14.5059L22.4981 14.3572L22.7342 14.1912L23.0445 14.027L23.3967 13.8784L23.7737 13.7663L24.1545 13.6679L24.5296 13.6002L24.9351 13.5462H25.3597L25.7577 13.5713L25.9976 13.6002L26.2336 13.6679L26.4678 13.7123L26.7306 13.8127L26.9914 13.9093L27.2504 14.0271L27.5112 14.1449L27.7492 14.2627L27.7702 14.506L27.7949 14.7454L27.7702 14.9868L27.7492 15.2224L27.7016 15.4695L27.6312 15.6839L27.5322 15.9002L27.4369 16.1184L26.7077 16.3752L25.9728 16.5992L25.2588 16.7865L24.5524 16.9526L24.1545 17.0472L23.6347 17.1959L22.995 17.3388L22.26 17.4836L21.883 17.5782L21.5041 17.6477L21.0777 17.7231L20.6264 17.8177L20.1561 17.893L19.684 17.9838L19.1604 18.0823L18.6425 18.1769L17.7191 18.368L16.868 18.5843L16.0683 18.8257L15.3315 19.0864L14.667 19.376L14.0539 19.6908L13.4865 20.0036L12.9858 20.3609L12.5631 20.7451L12.1652 21.1313L11.7787 21.5369L11.4283 21.9694L11.2856 22.2089L11.1199 22.4522L11.0038 22.6897L10.8591 22.9542L10.7391 23.2362L10.623 23.5104L10.5259 23.8213L10.4364 24.1341L10.3583 24.4373L10.3183 24.7289L10.2708 25.0166L10.2441 25.3062V25.5669L10.2708 25.8295L10.2917 26.0941L10.3374 26.3567L10.4079 26.5981L10.4802 26.8375L10.5507 27.0828L10.6497 27.3164L10.7678 27.5404L10.8782 27.747L11.021 27.9421L11.1657 28.1622L11.3314 28.3553L11.5008 28.5426L11.6836 28.7357L11.8988 28.9037L12.1139 29.0737L12.3252 29.2146L12.5861 29.3652L12.8431 29.4772L13.1325 29.597L13.4391 29.6896L13.7932 29.7688L14.1473 29.8422L14.551 29.8847L15.0003 29.9349L15.4725 29.958H15.9675H16.6301L17.2679 29.9349L17.9286 29.8615L18.5683 29.7418L19.1871 29.6182L19.8002 29.456L20.3866 29.2591L20.9388 29.0447L21.2682 28.9289L21.5709 28.7782L21.906 28.6122L22.2601 28.421L22.7818 28.1352L23.2997 27.8185L23.8176 27.4651L24.3431 27.0326L24.2707 27.2662L24.225 27.4864L24.1983 27.6988V27.9421V28.3264L24.2706 28.7126L24.3202 28.8806L24.3868 29.0447L24.4573 29.2147L24.5526 29.3846V29.431H25.9291H29.6876H31.245H31.9304L31.8619 29.2591L31.8162 29.0737L31.7743 28.8516L31.7457 28.6392L31.7248 28.3998L31.7457 28.1623L31.7743 27.919L31.8428 27.6776L32.5016 25.5419L33.0918 23.6514L33.6402 21.9463L34.1104 20.4555L34.5369 19.1366L34.893 17.9838L35.2204 16.9797L35.487 16.1184L35.5575 15.8713L35.5975 15.6569L35.647 15.4194L35.6717 15.1742L35.6945 14.7706V14.506L35.6717 14.0059L35.5975 13.498L35.5061 13.0172L35.3405 12.5673L35.1539 12.1289L34.9102 11.6983L34.6531 11.314L34.3485 10.9568L34.0191 10.5976L33.6631 10.306L33.2823 10.0183L32.8824 9.78274L32.454 9.5877L32.0047 9.42164L31.5344 9.30191L31.0356 9.20729L30.5596 9.13007L30.0189 9.05859L29.4286 8.98909L28.8099 8.93698L28.1758 8.89259L27.5114 8.86362L26.824 8.8482H26.1157H25.6188L25.0989 8.84806ZM115.288 8.84806L114.793 8.86348L114.269 8.89245L113.774 8.93684L113.275 8.98895L112.779 9.05845L112.285 9.15886L111.813 9.2515L111.387 9.37316L110.935 9.49095L110.513 9.63578L110.113 9.78254L109.679 9.94861L109.304 10.1127L108.927 10.3058L108.548 10.526L108.194 10.7403L107.838 10.9566L107.48 11.1941L107.156 11.4374L106.84 11.6981L106.516 11.9607L106.21 12.2543L105.922 12.5188L105.637 12.8027L105.353 13.1367L105.071 13.4747L104.789 13.8319L104.529 14.2162L104.245 14.6507L103.956 15.1064L111.175 15.9L111.507 15.4694L111.813 15.0813L112.116 14.7704L112.451 14.5058L112.659 14.3571L112.902 14.1911L113.232 14.0269L113.582 13.8783L113.938 13.7663L114.317 13.6678L114.721 13.6002L115.122 13.5461H115.524L115.949 13.5712L116.4 13.6678L116.918 13.8126L117.184 13.9092L117.439 14.0058L117.7 14.1197L117.936 14.2433L117.965 14.4828V14.7183V14.9868L117.936 15.2223L117.889 15.4695L117.816 15.6839L117.723 15.9001L117.63 16.1183L116.874 16.3752L116.164 16.5992L115.454 16.7865L114.745 16.9525L114.317 17.0472L113.799 17.1958L113.184 17.3387L112.451 17.4836L112.072 17.5782L111.672 17.6477L111.244 17.723L110.817 17.8177L110.341 17.893L109.845 17.9838L109.351 18.0822L108.832 18.1768L107.906 18.368L107.034 18.5843L106.252 18.8257L105.521 19.0864L104.835 19.376L104.215 19.6908L103.678 20.0036L103.179 20.3608L102.728 20.7451L102.326 21.1313L101.972 21.5368L101.614 21.9694L101.45 22.2088L101.311 22.4521L101.164 22.6897L101.05 22.9542L100.93 23.2361L100.808 23.5103L100.696 23.8212L100.595 24.1341L100.549 24.4372L100.481 24.7288L100.456 25.0166L100.429 25.3062V25.5669L100.456 25.8295L100.481 26.0941L100.528 26.3567L100.572 26.5981L100.646 26.8375L100.744 27.0827L100.839 27.3164L100.955 27.5404L101.073 27.747L101.191 27.9421L101.332 28.1622L101.522 28.3553L101.684 28.5426L101.878 28.7357L102.065 28.9037L102.282 29.0736L102.518 29.2146L102.748 29.3652L103.04 29.4772L103.318 29.5969L103.622 29.6896L103.955 29.7688L104.336 29.8421L104.738 29.8847L105.187 29.9349L105.637 29.958H106.158H106.794L107.457 29.9349L108.097 29.8615L108.734 29.7418L109.376 29.6182L109.964 29.456L110.558 29.259L111.124 29.0447L111.457 28.9288L111.764 28.7782L112.097 28.6121L112.451 28.421L112.944 28.1352L113.492 27.8185L114.008 27.4651L114.532 27.0326L114.462 27.2662L114.412 27.4863L114.389 27.6988L114.363 27.9421L114.389 28.3263L114.462 28.7126L114.507 28.8806L114.582 29.0447L114.65 29.2146L114.745 29.3846V29.4309H116.091H119.875H121.438H122.125L122.057 29.2591L121.984 29.0447L121.956 28.8323L121.908 28.5967V28.3553L121.935 28.112L121.956 27.8919L122.011 27.6776L122.692 25.5418L123.283 23.6514L123.808 21.9463L124.28 20.4555L124.678 19.1366L125.034 17.9838L125.341 16.9797L125.625 16.1184L125.745 15.6569L125.836 15.1741L125.859 14.7706L125.883 14.506L125.859 14.0059L125.792 13.498L125.67 13.0172L125.529 12.5673L125.341 12.1289L125.105 11.6983L124.846 11.314L124.537 10.9568L124.202 10.5976L123.852 10.306L123.473 10.0183L123.067 9.78271L122.622 9.58767L122.173 9.4216L121.723 9.30188L121.224 9.20726L120.727 9.13004L120.185 9.05856L119.619 8.98906L119.002 8.93695L118.361 8.89256L117.7 8.86359L117.015 8.84817H116.301H115.809L115.288 8.84806ZM80.4453 8.98709L75.8815 23.3404L75.8034 23.5779L75.7635 23.8213L75.7178 24.0356L75.6911 24.2731L75.6207 24.5589L75.5749 24.8466L75.5292 25.1112V25.3989L75.554 25.8566L75.6207 26.291L75.7178 26.7217L75.8605 27.1291L76.0243 27.5076L76.2375 27.8919L76.4965 28.2337L76.7535 28.5426L77.062 28.8323L77.3951 29.0949L77.7474 29.3363L78.1301 29.5255L78.5318 29.6742L78.9335 29.7862L79.36 29.8847L79.8037 29.9136L79.9979 29.96H80.2321H80.2834H80.3272H80.3977H80.4205H80.4986H81.0641L81.6276 29.9136L82.1722 29.8422L82.7148 29.7186L83.2612 29.5969L83.7829 29.456L84.3027 29.259L84.8206 29.0736L85.3194 28.8322L85.7935 28.5947L86.2657 28.3051L86.7379 28.0154L87.1625 27.6987L87.5928 27.3704L88.0173 27.0055L88.3943 26.6231L87.5166 29.4289H95.0887L101.636 8.98705H93.952L90.4278 20.0982L90.384 20.2411L90.2393 20.7239L90.0946 21.0772L89.9347 21.419L89.7462 21.7299L89.5272 22.0389L89.2949 22.3305L89.0303 22.5912L88.7751 22.8596L88.4895 23.0739L88.183 23.2902L87.8479 23.4833L87.5166 23.6223L87.1625 23.7729L86.8103 23.8869L86.4523 23.9853L86.0753 24.0356L85.6793 24.08L85.5079 24.051L85.3442 24.0046L85.1767 23.9564L85.011 23.8869L84.8701 23.8212L84.7292 23.7189L84.6093 23.6223L84.4874 23.5103L84.3713 23.3597L84.2799 23.2361L84.2094 23.0739L84.139 22.929L84.0704 22.761L84.0438 22.566L84.0172 22.398L83.9963 22.2088L84.0438 21.8959L84.1143 21.5812L88.0841 8.98702L80.4453 8.98709ZM26.3288 19.9264L25.9728 21.1545L25.8548 21.4866L25.7139 21.8033L25.5711 22.1123L25.4321 22.3981L25.2588 22.6897L25.0989 22.9542L24.9085 23.213L24.7181 23.4351L24.5296 23.6513L24.343 23.8657L24.1031 24.051L23.867 24.2712L23.6347 24.4662L23.351 24.6323L23.0445 24.7984L22.7342 24.9683L22.4981 25.0861L22.2601 25.1827L22.0011 25.2812L21.7365 25.3526L21.4794 25.4221L21.2205 25.4724L20.6741 25.567L20.1562 25.6152H19.8706L19.585 25.5901L19.3489 25.5419L19.1395 25.4975L18.951 25.4221L18.7815 25.3275L18.6425 25.1827L18.4769 25.0166L18.3817 24.8699L18.2865 24.7038L18.216 24.5339L18.1684 24.3427L18.1437 24.1341V23.9391L18.1932 23.719L18.2655 23.4815L18.3341 23.2922L18.4483 23.0991L18.5683 22.9292L18.6901 22.7341L18.8558 22.5661L19.0176 22.3982L19.1871 22.2572L19.3717 22.1124L19.585 21.9926L19.8496 21.8497L20.1562 21.73L20.4837 21.5813L21.2909 21.3187L22.2601 21.031L22.498 20.9595L22.7817 20.89L23.2311 20.7934L23.6823 20.6775L24.124 20.5501L24.5791 20.4555L25.0265 20.3377L25.4511 20.1909L25.9062 20.0712L26.3288 19.9264ZM116.518 19.9264L116.164 21.1545L115.998 21.6122L115.81 22.0621L115.568 22.4946L115.315 22.906L115.023 23.2922L114.721 23.6513L114.363 23.9854L114.008 24.2963L113.605 24.5589L113.207 24.8235L112.779 25.0397L112.312 25.2348L111.859 25.3757L111.358 25.4974L110.863 25.59L110.341 25.6421H110.035H109.776L109.542 25.59L109.329 25.5185L109.14 25.4471L108.972 25.3273L108.809 25.1825L108.666 25.0165L108.573 24.8697L108.474 24.7036L108.409 24.5337L108.359 24.3425L108.338 24.134V23.9389L108.382 23.7188L108.455 23.4813L108.523 23.292L108.618 23.0989L108.734 22.929L108.877 22.734L109.022 22.566L109.187 22.398L109.376 22.257L109.564 22.1122L109.776 21.9925L110.035 21.8496L110.32 21.7298L110.673 21.5812L111.457 21.3185L112.451 21.0308L112.687 20.9593L112.967 20.8898L113.418 20.7932L113.867 20.6774L114.317 20.5499L114.766 20.4553L115.193 20.3375L115.642 20.1908L116.091 20.071L116.518 19.9264Z" fill="#2C2C2C"/>
<path d="M78.1778 36.8685V35.9879H80.3549V37.8532V38.076V38.8103H79.549V38.5018L79.2423 38.6455L78.9121 38.7668L78.7419 38.8103L78.556 38.8419L78.3909 38.859H78.2245L77.8216 38.8419L77.4694 38.7866L77.3043 38.7391L77.1379 38.6679L76.995 38.5994L76.8533 38.5255L76.709 38.4319L76.5699 38.3304L76.4503 38.2407L76.3308 38.1168L76.2411 37.9705L76.1423 37.8532L76.0513 37.7082L75.9799 37.5434L75.8343 37.2296L75.7381 36.8684L75.6926 36.5363L75.6718 36.1513L75.6926 35.7677L75.764 35.3881L75.8615 35.0427L76.0058 34.7065L76.0928 34.5628L76.1916 34.4231L76.2865 34.2834L76.4035 34.1621L76.523 34.0369L76.6673 33.9182L76.8064 33.822L76.9715 33.7508L77.2067 33.6335L77.4914 33.532L77.8215 33.4845H78.1517H78.3908L78.604 33.5149L78.7911 33.532L78.9848 33.5821L79.1707 33.6335L79.3345 33.6968L79.4787 33.801L79.6217 33.8932L79.7374 33.9908L79.8557 34.116L79.9505 34.2267L80.0454 34.377L80.1195 34.522L80.1896 34.6604L80.2338 34.8292L80.2845 35.023L79.4318 35.1917L79.3604 34.994L79.2655 34.8292L79.146 34.6895L79.0043 34.5629L78.8184 34.4693L78.626 34.3981L78.4129 34.3533H78.1516H77.9892L77.8462 34.377L77.6811 34.4232L77.5394 34.4694L77.3965 34.5418L77.2795 34.613L77.1612 34.7067L77.0637 34.8082L76.948 34.9545L76.874 35.0955L76.8064 35.2419L76.7544 35.4053L76.7089 35.5978L76.6882 35.7678L76.6674 35.9577V36.1765V36.365L76.6882 36.5614L76.7089 36.7249L76.7544 36.9147L76.8064 37.0848L76.874 37.2298L76.9714 37.3761L77.0638 37.5172L77.1612 37.6121L77.2795 37.7083L77.3965 37.7795L77.5395 37.8533L77.6811 37.9008L77.8462 37.9469L77.9892 37.9707H78.1517L78.4129 37.9469L78.6261 37.9272L78.8184 37.9008L79.0043 37.8533L79.146 37.7795L79.2877 37.7083L79.4111 37.6121L79.5489 37.5172V36.8686L78.1778 36.8685ZM69.7799 36.1988V36.0314L69.8046 35.8363L69.8514 35.6676L69.8735 35.4751L70.0152 35.0955L70.1841 34.7369L70.2765 34.5629L70.3739 34.3981L70.4896 34.2584L70.6313 34.116L70.7756 33.9908L70.9172 33.8721L71.081 33.7785L71.2227 33.6809L71.4839 33.6085L71.7439 33.532L72.0013 33.4846H72.3119H72.5991L72.8539 33.532L73.1152 33.6085L73.3543 33.6967L73.561 33.8009L73.7755 33.9406L73.9704 34.0843L74.1537 34.2834L74.3006 34.4692L74.4396 34.6604L74.5592 34.8753L74.6788 35.1152L74.749 35.3881L74.7945 35.6504L74.8439 35.9048V36.1764V36.4651L74.7945 36.7248L74.749 36.9884L74.6788 37.2296L74.5592 37.4696L74.4396 37.6884L74.3188 37.9006L74.1537 38.0931L73.9886 38.2592L73.7755 38.4068L73.5896 38.5505L73.3543 38.6679L73.1152 38.739L72.8539 38.8102L72.5991 38.859H72.3119H72.0493L71.7894 38.8102L71.5307 38.739L71.2981 38.6679L71.0576 38.5505L70.8458 38.4319L70.656 38.2592L70.4896 38.0931L70.3284 37.9006L70.1842 37.7082L70.0646 37.4933L69.9684 37.2547L69.8994 37.0135L69.8293 36.7551L69.8046 36.4835L69.7799 36.1988ZM70.8236 36.1764L70.8458 36.5112L70.9172 36.821L70.9627 36.9884L71.0329 37.1348L71.1018 37.2811L71.1993 37.3971L71.2981 37.5171L71.4138 37.6383L71.5308 37.7306L71.6724 37.8097L71.8167 37.8756L71.9545 37.927L72.1456 37.9468L72.3119 37.9705L72.5017 37.9468L72.6707 37.927L72.8331 37.8756L72.9735 37.8097L73.1152 37.7306L73.2374 37.6383L73.3283 37.5171L73.4466 37.3971L73.5194 37.2547L73.5896 37.1124L73.6559 36.9647L73.7053 36.821L73.7755 36.4836L73.8041 36.1514L73.7755 35.8126L73.7053 35.5028L73.6559 35.3367L73.5896 35.1917L73.5194 35.073L73.4466 34.928L73.3543 34.8081L73.2373 34.7066L73.1151 34.6129L72.9735 34.5417L72.8331 34.4693L72.6706 34.4231L72.5016 34.3981L72.3119 34.377L72.1221 34.3981L71.9544 34.4231L71.7894 34.4693L71.649 34.5417L71.5307 34.6129L71.3877 34.7066L71.298 34.8291L71.1993 34.9544L71.1018 35.073L71.0329 35.2141L70.9627 35.3565L70.9171 35.5028L70.8457 35.8363L70.8236 36.1764ZM55.1613 38.7865V33.5557H56.0387L58.4043 37.0636V33.5557H59.3518V38.7865H58.4251L56.1076 35.3881V38.7865H55.1613ZM49.6295 38.7865V33.5557H50.6485V35.6227H52.94V33.5557H53.9317V38.7865H52.94V36.5112H50.6485V38.7865H49.6295ZM39.5315 38.7865V33.5557H43.2411V34.4482H40.5454V35.5977H43.0526V36.4836H40.5454V37.9007H43.3386V38.7865H39.5315ZM82.4345 38.7865V36.5824L80.6135 33.5557H81.7963L82.9557 35.6227L84.1151 33.5557H85.2745L83.4509 36.6075V38.7865H82.4345ZM66.2081 38.7865V33.6085H67.2284V37.9007H69.4979V38.7865H66.2081ZM60.3422 36.1988V36.0314L60.3656 35.8363L60.3903 35.6676L60.4384 35.4751L60.5579 35.0954L60.723 34.7369L60.84 34.5629L60.9348 34.3981L61.0531 34.2583L61.1974 34.116L61.3092 33.9907L61.4794 33.8721L61.6211 33.7785L61.7849 33.6809L62.0227 33.6084L62.2827 33.532L62.5686 33.4845H62.8728H63.1562L63.4174 33.532L63.6735 33.6084L63.9126 33.6967L64.1284 33.8009L64.3376 33.9406L64.5313 34.0843L64.7159 34.2833L64.8602 34.4692L64.9979 34.6603L65.1201 34.8752L65.2124 35.1151L65.3112 35.388L65.3554 35.6504L65.4061 35.9048V36.1763V36.465L65.3554 36.7247L65.3112 36.9884L65.2124 37.2296L65.1201 37.4695L64.9979 37.6884L64.8602 37.9006L64.7159 38.0931L64.5313 38.2592L64.3376 38.4068L64.1284 38.5505L63.9126 38.6678L63.6735 38.739L63.4174 38.8102L63.1562 38.8589H62.8728H62.6141L62.3295 38.8102L62.0955 38.739L61.8577 38.6678L61.6211 38.5505L61.4054 38.4319L61.2182 38.2592L61.0531 38.0931L60.8867 37.9006L60.7477 37.7081L60.6255 37.4933L60.5358 37.2547L60.4383 37.0134L60.3903 36.755L60.3422 36.4835L60.3422 36.1988ZM61.3834 36.1764L61.4055 36.5112L61.4796 36.821L61.5264 36.9884L61.5978 37.1347L61.6641 37.2811L61.7668 37.3971L61.8577 37.517L61.9695 37.6383L62.0956 37.7306L62.2126 37.8097L62.3777 37.8756L62.518 37.927L62.7104 37.9468L62.8729 37.9705L63.0613 37.9468L63.2277 37.927L63.3928 37.8756L63.5357 37.8097L63.6735 37.7306L63.7983 37.6383L63.8906 37.517L63.9855 37.3971L64.0817 37.2547L64.1492 37.1123L64.2221 36.9647L64.2676 36.821L64.3378 36.4835L64.3624 36.1513L64.3378 35.8125L64.2676 35.5027L64.2221 35.3367L64.1492 35.1916L64.0817 35.073L64.0128 34.928L63.8906 34.808L63.7983 34.7065L63.6735 34.6129L63.5357 34.5417L63.3927 34.4692L63.2277 34.4231L63.0613 34.398L62.8728 34.377L62.6831 34.398L62.518 34.4231L62.3516 34.4692L62.2125 34.5417L62.0696 34.6129L61.9513 34.7065L61.8577 34.8291L61.7381 34.9544L61.664 35.073L61.5978 35.2141L61.5263 35.3564L61.4795 35.5027L61.4054 35.8363L61.3834 36.1764ZM47.5914 36.8684L48.6326 37.1796L48.5858 37.3971L48.4948 37.5922L48.422 37.757L48.3258 37.927L48.2062 38.0931L48.0905 38.2078L47.9709 38.3304L47.8293 38.4543L47.6876 38.5505L47.5225 38.6454L47.3574 38.7206L47.1911 38.7667L47.0026 38.8102L46.8141 38.8419L46.6283 38.859H46.4099H46.1279L45.8887 38.8419L45.6547 38.7667L45.4169 38.6929L45.2037 38.5992L44.9945 38.478L44.7995 38.3303L44.6383 38.1695L44.4746 37.9704L44.3316 37.7569L44.2107 37.517L44.095 37.281L44.0222 37.0134L43.9728 36.7247L43.926 36.465V36.1763L43.9494 35.9047L43.9728 35.6226L44.0222 35.3564L44.1184 35.0953L44.2107 34.8541L44.3316 34.6129L44.4746 34.398L44.6384 34.2121L44.8268 34.0368L45.0153 33.8931L45.2259 33.7784L45.439 33.6558L45.6795 33.582L45.9407 33.5318L46.1981 33.4844H46.4606H46.7167L46.9299 33.5147L47.169 33.5556L47.3575 33.6334L47.5693 33.6966L47.7357 33.8008L47.9268 33.9181L48.0633 34.0368L48.2582 34.2266L48.3986 34.448L48.5143 34.7064L48.6326 34.9938L47.546 35.2614L47.4965 35.0729L47.4029 34.9028L47.2873 34.7367L47.1443 34.6128L46.9792 34.5219L46.8141 34.448L46.6283 34.3979L46.4099 34.3768L46.2695 34.3979H46.1279L45.9836 34.448L45.8666 34.4928L45.747 34.5415L45.6313 34.6127L45.5378 34.6892L45.439 34.8078L45.322 34.9541L45.2258 35.0952L45.1556 35.2613L45.088 35.4577L45.0386 35.6225L44.9945 35.8123L44.9711 36.0048V36.1985V36.3844L44.9945 36.5822L45.0386 36.7549L45.088 36.9394L45.1556 37.1121L45.2258 37.2545L45.322 37.4192L45.439 37.5432L45.5378 37.6381L45.6313 37.7303L45.747 37.8094L45.8666 37.8529L45.9836 37.9004L46.1045 37.9465L46.2448 37.9703H46.3839L46.5984 37.9465L46.7908 37.9004L46.9792 37.8305L47.1443 37.7079L47.2873 37.5431L47.4029 37.3506L47.4965 37.1344L47.5914 36.8684ZM36.026 38.7865V34.4481H34.5586V33.5557H38.5359V34.4481H37.0451V38.7865H36.026Z" fill="#2C2C2C"/>
</svg>
